<svg width="200" height="200" viewBox="0 0 200 200" stroke="#bf7f00" fill="none" stroke-width="2.5" stroke-linecap="round" stroke-linejoin="round"  xmlns="http://www.w3.org/2000/svg">
    <path fill="#e0d9ad" stroke="none" transform="translate(-10,-10)" d="M79.449 75.412c7.479-5.277 13.925-11.703 20.944-20.797 6.671 10.246 13.067 17.099 20.677 22.33 7.461 5.128 16.013 8.642 26.944 12.314-11.921 10.42-18.217 19.077-20.62 28.09-2.295 8.61-.971 17.317 1.929 27.772-11.414-5.594-20.635-8.42-29.696-8.388-9.193.032-18.044 3.003-28.678 8.658.69-12.606.195-22.364-2.525-31.112-2.75-8.845-7.735-16.533-15.804-25.053 10.932-4.466 19.366-8.548 26.829-13.814Z"/><path d="M79.449 75.412c7.479-5.277 13.925-11.703 20.944-20.797 6.671 10.246 13.067 17.099 20.677 22.33 7.461 5.128 16.013 8.642 26.944 12.314-11.921 10.42-18.217 19.077-20.62 28.09-2.295 8.61-.971 17.317 1.929 27.772-11.414-5.594-20.635-8.42-29.696-8.388-9.193.032-18.044 3.003-28.678 8.658.69-12.606.195-22.364-2.525-31.112-2.75-8.845-7.735-16.533-15.804-25.053 10.932-4.466 19.366-8.548 26.829-13.814Z"/>
</svg>