<svg width="1em" height="1em" viewBox="0 0 20 20" xmlns="http://www.w3.org/2000/svg"
    xmlns:xlink="http://www.w3.org/1999/xlink" role="img">
    <defs>
        <path
            d="M10.375 7.875V6a.375.375 0 10-.75 0v1.875h.75zM10.025 3c.345 0 .625.28.625.625v.75a.628.628 0 01-.014.13c.581.246.989.823.989 1.495v2H13v-.5a.5.5 0 111 0V8h2.5a.5.5 0 01.5.5v.25a.5.5 0 01-.5.5H11V16h1.5a.5.5 0 01.5.5v.25a.5.5 0 01-.5.5h-5a.5.5 0 01-.5-.5v-.25a.5.5 0 01.5-.5H9V9.25H3.5a.5.5 0 01-.5-.5V8.5a.5.5 0 01.5-.5H6v-.5a.5.5 0 011 0V8h1.375V6c0-.69.43-1.279 1.035-1.515a.567.567 0 01-.01-.11v-.75c0-.345.28-.625.625-.625zM.75 5a.5.5 0 01.5.5V11h3.5a.5.5 0 01.5.5v5a.5.5 0 01-.5.5H4.5a.5.5 0 01-.5-.5v-1.25H1.25v1.25a.5.5 0 01-.5.5H.5a.5.5 0 01-.5-.5v-11A.5.5 0 01.5 5h.25zM19.5 5a.5.5 0 01.5.5v11a.5.5 0 01-.5.5h-.25a.5.5 0 01-.5-.5v-1.25h-3v1.25a.5.5 0 01-.5.5H15a.5.5 0 01-.5-.5v-5a.5.5 0 01.5-.5h.25a.5.5 0 01.125.016A.487.487 0 0115.5 11h3.25V5.5a.5.5 0 01.5-.5h.25zm-.75 7.25h-3V14h3v-1.75zM4 12.25H1.25V14H4v-1.75zM7.5 6c0 .67-.448 1-1 1s-1-.5-1-1zm7 0c0 .67-.448 1-1 1s-1-.5-1-1z"
            id="table-regular_svg__a"></path>
    </defs>
    <use fill="currentColor" xlink:href="#table-regular_svg__a" fill-rule="evenodd"></use>
</svg>