<?xml version="1.0" encoding="iso-8859-1"?>
<!-- Uploaded to: SVG Repo, www.svgrepo.com, Generator: SVG Repo Mixer Tools -->
<svg height="800px" width="800px" version="1.1" id="Layer_1" xmlns="http://www.w3.org/2000/svg" xmlns:xlink="http://www.w3.org/1999/xlink" 
	 viewBox="0 0 512 512" xml:space="preserve">
<circle style="fill:#366796;" cx="256" cy="256" r="256"/>
<path style="fill:#273B7A;" d="M334.52,103.571L120.048,413.972l94.703,94.703C228.181,510.85,241.955,512,256,512
	c133.315,0,242.809-101.909,254.878-232.07L334.52,103.571z"/>
<g>
	<path style="fill:#D48B07;" d="M162.19,416.64h-35.34c-5.634,0-10.2-4.567-10.2-10.2V371.1c0-5.634,4.567-10.2,10.2-10.2h35.34
		c5.634,0,10.2,4.567,10.2,10.2v35.34C172.391,412.074,167.824,416.64,162.19,416.64z"/>
	<path style="fill:#D48B07;" d="M385.15,416.64h-35.34c-5.634,0-10.2-4.567-10.2-10.2V371.1c0-5.634,4.567-10.2,10.2-10.2h35.34
		c5.634,0,10.2,4.567,10.2,10.2v35.34C395.348,412.074,390.782,416.64,385.15,416.64z"/>
</g>
<path style="fill:#FFEDB5;" d="M367.48,182.703c0,61.568-49.911,167.219-111.48,167.219S144.52,244.271,144.52,182.703
	S194.431,71.223,256,71.223S367.48,121.135,367.48,182.703z"/>
<path style="fill:#FEE187;" d="M367.48,182.703c0-61.471-49.757-111.316-111.192-111.473v278.683
	C317.723,349.586,367.48,244.176,367.48,182.703z"/>
<g>
	<path style="fill:#D48B07;" d="M130.586,381.593L130.586,381.593c-23.088,0-41.805-18.716-41.805-41.805v-97.121
		c0-23.088,18.716-41.805,41.805-41.805l0,0c23.088,0,41.805,18.716,41.805,41.805v97.121
		C172.391,362.875,153.674,381.593,130.586,381.593z"/>
	<path style="fill:#D48B07;" d="M381.414,381.593L381.414,381.593c-23.088,0-41.805-18.716-41.805-41.805v-97.121
		c0-23.088,18.716-41.805,41.805-41.805l0,0c23.088,0,41.805,18.716,41.805,41.805v97.121
		C423.219,362.875,404.502,381.593,381.414,381.593z"/>
</g>
<path style="fill:#FEE187;" d="M369.061,388.772h-226.12c-14.519,0-26.29-11.771-26.29-26.29v-58.901
	c0-14.519,11.771-26.29,26.29-26.29h226.12c14.519,0,26.29,11.771,26.29,26.29v58.901
	C395.348,377.001,383.579,388.772,369.061,388.772z"/>
<path style="fill:#FFC61B;" d="M369.059,277.292H256.286v111.48h112.773c14.519,0,26.29-11.771,26.29-26.29v-58.901
	C395.348,289.063,383.579,277.292,369.059,277.292z"/>
</svg>