<?xml version="1.0" encoding="iso-8859-1"?>
<!-- Uploaded to: SVG Repo, www.svgrepo.com, Generator: SVG Repo Mixer Tools -->
<svg height="800px" width="800px" version="1.1" id="Layer_1" xmlns="http://www.w3.org/2000/svg" xmlns:xlink="http://www.w3.org/1999/xlink" 
	 viewBox="0 0 512 512" xml:space="preserve">
<g>
	<path style="fill:#EAC36E;" d="M66.72,440.551v54.591H23.527l7.603-12.116c4.878-7.758,3.556-18.131-3.542-23.936
		c-5.356-4.399-8.785-11.062-8.785-18.539"/>
	<path style="fill:#EAC36E;" d="M493.196,440.551c0,7.478-3.429,14.14-8.785,18.539c-7.099,5.805-8.419,16.178-3.542,23.936
		l7.603,12.116H445.28v-54.591"/>
	<path style="fill:#EAC36E;" d="M481.227,297.409V106.351l0,0c-40.186,0-78.602-15.7-107.935-43.167
		c-30.687-28.734-71.933-46.327-117.29-46.327S169.397,34.45,138.71,63.185c-29.334,27.466-67.75,43.166-107.936,43.166l0,0v191.059
		"/>
</g>
<path style="fill:#FCD577;" d="M445.751,300.957c-3.266,0-5.913-2.648-5.913-5.913V143.339
	c-35.281-7.592-67.977-24.795-94.836-49.943C320.795,70.728,289.187,58.244,256,58.244c-33.185,0-64.794,12.484-89.002,35.152
	c-26.859,25.148-59.556,42.35-94.837,49.943v151.706c0,3.265-2.646,5.913-5.913,5.913c-3.266,0-5.913-2.648-5.913-5.913V133.603
	l4.813-0.911c34.909-6.604,67.332-23.179,93.767-47.929C185.323,60.036,219.801,46.419,256,46.419s70.678,13.618,97.086,38.345
	c26.434,24.751,58.857,41.325,93.765,47.929l4.813,0.911v161.441C451.664,298.309,449.018,300.957,445.751,300.957z"/>
<g>
	<path style="fill:#DFE9EF;" d="M140.413,182.396c-34.533,0-64.416,19.828-78.94,48.71c14.525,28.881,44.408,48.71,78.94,48.71
		s64.416-19.828,78.94-48.71C204.828,202.224,174.945,182.396,140.413,182.396z"/>
	<path style="fill:#DFE9EF;" d="M371.587,182.396c-34.533,0-64.416,19.828-78.94,48.71c14.525,28.881,44.408,48.71,78.94,48.71
		s64.416-19.828,78.94-48.71C436.004,202.224,406.12,182.396,371.587,182.396z"/>
</g>
<g>
	<path style="fill:#CFDCE5;" d="M322.8,231.107c12.362-24.582,35.853-42.596,63.865-47.417c-4.9-0.843-9.935-1.292-15.076-1.292
		c-34.533,0-64.417,19.828-78.94,48.71c14.525,28.881,44.408,48.71,78.94,48.71c5.142,0,10.177-0.449,15.076-1.292
		C358.653,273.701,335.161,255.688,322.8,231.107z"/>
	<path style="fill:#CFDCE5;" d="M91.619,231.107c12.362-24.582,35.853-42.596,63.865-47.417c-4.9-0.843-9.935-1.292-15.076-1.292
		c-34.533,0-64.417,19.828-78.94,48.71c14.525,28.881,44.408,48.71,78.94,48.71c5.142,0,10.177-0.449,15.076-1.292
		C127.473,273.701,103.981,255.688,91.619,231.107z"/>
	<path style="fill:#CFDCE5;" d="M0,357.447v-17.785v-36.457c0-15.526,12.594-28.12,28.12-28.12h380.175h29.563h46.023
		c15.526,0,28.12,12.594,28.12,28.12v36.457v17.785"/>
</g>
<path style="fill:#C5D1D8;" d="M37.84,303.206c0-15.526,12.594-28.12,28.12-28.12H28.12C12.594,275.086,0,287.68,0,303.206v36.457
	v17.785h37.84v-17.785C37.84,339.663,37.84,303.206,37.84,303.206z"/>
<path style="fill:#FCD577;" d="M512,339.664L512,339.664c-45.677,0-89.342-17.845-122.683-49.064
	c-34.88-32.66-81.762-52.657-133.317-52.657s-98.436,19.997-133.317,52.658C89.342,321.819,45.677,339.664,0,339.664l0,0v102.661
	h512V339.664z"/>
<path style="fill:#EAC36E;" d="M482.439,412.763H29.563v-45.603l4.923-0.836c40.412-6.857,77.897-25.58,108.405-54.146
	c30.768-28.809,70.936-44.675,113.11-44.675c42.173,0,82.344,15.866,113.11,44.674c30.507,28.566,67.992,47.288,108.405,54.146
	l4.923,0.836v45.604H482.439z M41.388,400.938h429.225v-23.849c-40.825-7.892-78.619-27.284-109.585-56.279
	c-28.567-26.749-65.867-41.481-105.027-41.481s-76.461,14.732-105.028,41.482c-30.965,28.993-68.76,48.386-109.585,56.278V400.938z"
	/>
</svg>