<svg xmlns="http://www.w3.org/2000/svg" version="1.1" xmlns:xlink="http://www.w3.org/1999/xlink" xmlns:svgjs="http://svgjs.dev/svgjs" viewBox="0 0 800 800"><defs><linearGradient x1="50%" y1="0%" x2="50%" y2="100%" id="cccoil-grad"><stop stop-color="hsl(49, 46%, 77%)" stop-opacity="1" offset="0%"></stop><stop stop-color="hsl(28, 44%, 78%)" stop-opacity="1" offset="100%"></stop></linearGradient></defs><g stroke="url(#cccoil-grad)" fill="none" stroke-linecap="round"><circle r="763" cx="400" cy="400" stroke-width="10" stroke-dasharray="4794 4794" transform="rotate(360, 400, 400)" stroke-dashoffset="1000" opacity="0.05"></circle><circle r="708.5" cx="400" cy="400" stroke-width="10" stroke-dasharray="4109 4452" transform="rotate(332, 400, 400)" stroke-dashoffset="1000" opacity="0.12"></circle><circle r="654" cx="400" cy="400" stroke-width="10" stroke-dasharray="3477 4109" transform="rotate(305, 400, 400)" stroke-dashoffset="1000" opacity="0.20"></circle><circle r="599.5" cx="400" cy="400" stroke-width="10" stroke-dasharray="2898 3767" transform="rotate(277, 400, 400)" stroke-dashoffset="1000" opacity="0.27"></circle><circle r="545" cx="400" cy="400" stroke-width="10" stroke-dasharray="2371 3424" transform="rotate(249, 400, 400)" stroke-dashoffset="1000" opacity="0.34"></circle><circle r="490.5" cx="400" cy="400" stroke-width="10" stroke-dasharray="1897 3082" transform="rotate(222, 400, 400)" stroke-dashoffset="1000" opacity="0.42"></circle><circle r="436" cx="400" cy="400" stroke-width="10" stroke-dasharray="1475 2739" transform="rotate(194, 400, 400)" stroke-dashoffset="1000" opacity="0.49"></circle><circle r="381.5" cx="400" cy="400" stroke-width="10" stroke-dasharray="1106 2397" transform="rotate(166, 400, 400)" stroke-dashoffset="1000" opacity="0.56"></circle><circle r="327" cx="400" cy="400" stroke-width="10" stroke-dasharray="790 2055" transform="rotate(138, 400, 400)" stroke-dashoffset="1000" opacity="0.63"></circle><circle r="272.5" cx="400" cy="400" stroke-width="10" stroke-dasharray="527 1712" transform="rotate(111, 400, 400)" stroke-dashoffset="1000" opacity="0.71"></circle><circle r="218" cx="400" cy="400" stroke-width="10" stroke-dasharray="316 1370" transform="rotate(83, 400, 400)" stroke-dashoffset="1000" opacity="0.78"></circle><circle r="163.5" cx="400" cy="400" stroke-width="10" stroke-dasharray="158 1027" transform="rotate(55, 400, 400)" stroke-dashoffset="1000" opacity="0.85"></circle><circle r="109" cx="400" cy="400" stroke-width="10" stroke-dasharray="53 685" transform="rotate(28, 400, 400)" stroke-dashoffset="1000" opacity="0.93"></circle><circle r="54.5" cx="400" cy="400" stroke-width="10" stroke-dasharray="0 342" stroke-dashoffset="1000" opacity="1.00"></circle></g></svg>