<?xml version="1.0" encoding="iso-8859-1"?>
<!-- Uploaded to: SVG Repo, www.svgrepo.com, Generator: SVG Repo Mixer Tools -->
<svg version="1.1" id="Layer_1" xmlns="http://www.w3.org/2000/svg" xmlns:xlink="http://www.w3.org/1999/xlink" 
	 viewBox="0 0 512 512" xml:space="preserve">
<circle style="fill:#FFEDB5;" cx="256" cy="256" r="256"/>
<g>
	<polygon style="fill:#FEE187;" points="232.477,71.225 376.172,214.919 214.914,214.919 	"/>
	<path style="fill:#FEE187;" d="M507.639,208.784L386.927,88.078l-64.621,131.72L90.684,251.69L76.714,398.222l101.84,101.84
		C202.986,507.809,229.004,512,256,512c141.384,0,256-114.616,256-256C512,239.868,510.492,224.089,507.639,208.784z"/>
</g>
<g>
	<rect x="309.458" y="175.614" style="fill:#7F7F7F;" width="25.712" height="25.712"/>
	<path style="fill:#7F7F7F;" d="M341.197,207.362h-37.779v-37.778h37.779L341.197,207.362L341.197,207.362z M315.485,195.294h13.645
		v-13.643h-13.645V195.294z"/>
</g>
<path style="fill:#FFFFFF;" d="M272.825,190.421h98.962c8.173,0,14.796-6.625,14.796-14.798v-73.25
	c0-8.173-6.625-14.796-14.796-14.796h-98.962c-8.173,0-14.796,6.625-14.796,14.796v73.25
	C258.029,183.796,264.654,190.421,272.825,190.421z"/>
<g>
	<path style="fill:#7F7F7F;" d="M371.788,196.455h-98.961c-11.486,0-20.832-9.345-20.832-20.83v-73.252
		c0-11.485,9.345-20.83,20.832-20.83h98.961c11.486,0,20.832,9.345,20.832,20.83v73.252
		C392.62,187.109,383.274,196.455,371.788,196.455z M272.827,93.61c-4.834,0-8.764,3.931-8.764,8.763v73.252
		c0,4.832,3.93,8.763,8.764,8.763h98.961c4.834,0,8.764-3.93,8.764-8.763v-73.252c0-4.832-3.931-8.763-8.764-8.763H272.827z"/>
	<path style="fill:#7F7F7F;" d="M180.436,201.328h39.876c7.061,0,12.786-5.725,12.786-12.786V85.557
		c0-7.061-5.725-12.786-12.786-12.786h-39.876c-7.061,0-12.786,5.725-12.786,12.786v102.984
		C167.65,195.605,173.375,201.328,180.436,201.328z"/>
</g>
<g>
	<path style="fill:#4F4F4F;" d="M220.312,207.362h-39.876c-10.378,0-18.82-8.44-18.82-18.818V85.557
		c0-10.378,8.442-18.818,18.82-18.818h39.876c10.378,0,18.82,8.44,18.82,18.818v102.986
		C239.132,198.921,230.688,207.362,220.312,207.362z M180.436,78.807c-3.724,0-6.753,3.029-6.753,6.751v102.986
		c0,3.722,3.029,6.751,6.753,6.751h39.876c3.724,0,6.753-3.029,6.753-6.751V85.557c0-3.722-3.029-6.751-6.753-6.751H180.436z"/>
	<rect x="169.994" y="92.45" style="fill:#4F4F4F;" width="60.768" height="12.067"/>
	<rect x="169.994" y="118.156" style="fill:#4F4F4F;" width="60.768" height="12.067"/>
</g>
<g>
	<rect x="76.714" y="275.825" style="fill:#FF7F4F;" width="13.971" height="122.397"/>
	<rect x="421.323" y="275.825" style="fill:#FF7F4F;" width="13.971" height="122.397"/>
</g>
<rect x="76.714" y="204.041" style="fill:#E03A00;" width="358.572" height="76.836"/>
<rect x="254.569" y="204.041" style="fill:#940030;" width="180.717" height="76.836"/>
<rect x="86.799" y="212.454" style="fill:#FF7F4F;" width="338.385" height="59.995"/>
<rect x="254.569" y="212.454" style="fill:#FF5419;" width="170.632" height="59.995"/>
<circle style="fill:#940030;" cx="256" cy="242.45" r="12.807"/>
<path style="fill:#7C002D;" d="M256,229.645c-0.486,0-0.964,0.033-1.436,0.086v25.441c0.472,0.053,0.95,0.086,1.436,0.086
	c7.073,0,12.807-5.734,12.807-12.807C268.807,235.379,263.073,229.645,256,229.645z"/>
</svg>