<?xml version="1.0" encoding="iso-8859-1"?>
<!-- Uploaded to: SVG Repo, www.svgrepo.com, Generator: SVG Repo Mixer Tools -->
<svg height="800px" width="800px" version="1.1" id="Layer_1" xmlns="http://www.w3.org/2000/svg" xmlns:xlink="http://www.w3.org/1999/xlink" 
	 viewBox="0 0 512 512" xml:space="preserve">
<circle style="fill:#366796;" cx="256" cy="256" r="256"/>
<path style="fill:#263A7A;" d="M110.471,316.483l191.41,191.41c98.078-17.749,176.702-91.37,201.733-186.711l-83.194-82.966
	L110.471,316.483z"/>
<circle style="fill:#FF7F4F;" cx="170.667" cy="256" r="85.333"/>
<path style="fill:#E5572C;" d="M170.667,341.333C217.795,341.333,256,303.128,256,256H85.333
	C85.333,303.128,123.539,341.333,170.667,341.333z"/>
<path style="fill:#FFEDB5;" d="M398.222,284.444H170.667c-15.71,0-28.444-12.734-28.444-28.444l0,0
	c0-15.71,12.734-28.444,28.444-28.444h227.556c15.71,0,28.444,12.734,28.444,28.444l0,0
	C426.667,271.71,413.932,284.444,398.222,284.444z"/>
<path style="fill:#FEE187;" d="M170.667,284.444h227.556c15.71,0,28.444-12.734,28.444-28.444H142.222
	C142.222,271.71,154.957,284.444,170.667,284.444z"/>
</svg>