<?xml version="1.0" encoding="iso-8859-1"?>
<!-- Uploaded to: SVG Repo, www.svgrepo.com, Generator: SVG Repo Mixer Tools -->
<svg height="800px" width="800px" version="1.1" id="Layer_1" xmlns="http://www.w3.org/2000/svg" xmlns:xlink="http://www.w3.org/1999/xlink" 
	 viewBox="0 0 512 512" xml:space="preserve">
<circle style="fill:#FEE187;" cx="256" cy="256" r="256"/>
<path style="fill:#FFC61B;" d="M511.631,242.259l-120.97-120.892L121.26,390.554l18.491,25.583l-8.733,9.523l82.873,82.873
	C227.592,510.802,241.655,512,256,512c141.384,0,256-114.616,256-256C512,251.389,511.872,246.808,511.631,242.259z"/>
<g>
	<polygon style="fill:#E03A00;" points="154.826,425.415 131.017,425.66 131.017,367.909 174.485,362.165 	"/>
	<polygon style="fill:#E03A00;" points="357.174,425.66 380.983,425.415 380.983,367.666 337.513,362.811 	"/>
</g>
<path style="fill:#940030;" d="M139.636,398.222h232.727c14.281,0,25.859-11.578,25.859-25.859V139.636
	c0-14.281-11.578-25.859-25.859-25.859H139.636c-14.281,0-25.859,11.578-25.859,25.859v232.727
	C113.778,386.644,125.356,398.222,139.636,398.222z"/>
<path style="fill:#6D0027;" d="M372.364,113.778H253.702v284.444h118.662c14.281,0,25.859-11.578,25.859-25.859V139.636
	C398.222,125.356,386.644,113.778,372.364,113.778z"/>
<path style="fill:#940030;" d="M139.636,113.778c-14.281,0-25.859,11.578-25.859,25.859v232.727
	c0,14.281,11.578,25.859,25.859,25.859h114.066V113.778H139.636z"/>
<g>
	<path style="fill:#FFEDB5;" d="M155.295,341.333h201.409c7.22,0,13.072-5.853,13.072-13.072V155.295
		c0-7.22-5.853-13.072-13.072-13.072H155.295c-7.22,0-13.072,5.853-13.072,13.072v172.965
		C142.222,335.481,148.075,341.333,155.295,341.333z"/>
	<path style="fill:#FFEDB5;" d="M155.295,142.222c-7.22,0-13.072,5.853-13.072,13.072v172.965c0,7.22,5.853,13.072,13.072,13.072
		H253.7V142.222H155.295z"/>
</g>
<path style="fill:#FEE187;" d="M356.704,142.222H253.7v199.111h103.003c7.22,0,13.072-5.853,13.072-13.072V155.295
	C369.778,148.075,363.925,142.222,356.704,142.222z"/>
<path style="fill:#E03A00;" d="M199.111,293.926c0-31.418,56.889-113.778,56.889-113.778s56.889,82.36,56.889,113.778
	S287.418,341.333,256,341.333S199.111,325.344,199.111,293.926z"/>
<path style="fill:#940030;" d="M256,180.148c0,0-0.838,1.212-2.298,3.382v157.765c0.764,0.019,1.527,0.036,2.298,0.036
	c31.418,0,56.889-15.989,56.889-47.407S256,180.148,256,180.148z"/>
<path style="fill:#E03A00;" d="M199.111,293.926c0,30.648,24.238,46.606,54.591,47.371V183.532
	C243.074,199.32,199.111,266.304,199.111,293.926z"/>
<g>
	<path style="fill:#FF7F4F;" d="M220.991,315.806c0-19.335,35.009-70.016,35.009-70.016s35.009,50.683,35.009,70.016
		c0,19.335-15.674,25.528-35.009,25.528S220.991,335.141,220.991,315.806z"/>
	<path style="fill:#FF7F4F;" d="M220.991,315.806c0,18.56,14.451,24.991,32.711,25.479v-92.094
		C245.912,260.865,220.991,299.492,220.991,315.806z"/>
</g>
<path style="fill:#FF5419;" d="M256,245.789c0,0-0.855,1.238-2.298,3.401v92.096c0.764,0.021,1.522,0.048,2.298,0.048
	c19.335,0,35.009-6.192,35.009-25.528S256,245.789,256,245.789z"/>
<path style="fill:#940030;" d="M272.955,312.842c0-18.882,34.19-68.379,34.19-68.379s34.188,49.497,34.188,68.379
	c0,18.882-15.307,28.491-34.19,28.491C288.261,341.333,272.955,331.724,272.955,312.842z"/>
<path style="fill:#FF7F4F;" d="M286.105,325.992c0-11.619,21.04-42.079,21.04-42.079s21.04,30.46,21.04,42.079
	s-9.421,15.341-21.042,15.341C295.522,341.333,286.105,337.611,286.105,325.992z"/>
<path style="fill:#940030;" d="M159.177,312.842c0-18.882,34.19-68.379,34.19-68.379s34.189,49.497,34.189,68.379
	c0,18.882-15.307,28.491-34.19,28.491S159.177,331.724,159.177,312.842z"/>
<path style="fill:#FF7F4F;" d="M172.327,325.992c0-11.619,21.04-42.079,21.04-42.079s21.04,30.46,21.04,42.079
	s-9.421,15.341-21.042,15.341C181.744,341.333,172.327,337.611,172.327,325.992z"/>
</svg>