<?xml version="1.0" encoding="iso-8859-1"?>
<!-- Uploaded to: SVG Repo, www.svgrepo.com, Generator: SVG Repo Mixer Tools -->
<svg version="1.1" id="Layer_1" xmlns="http://www.w3.org/2000/svg" xmlns:xlink="http://www.w3.org/1999/xlink" 
	 viewBox="0 0 512 512" xml:space="preserve">
<circle style="fill:#366796;" cx="256" cy="256" r="256"/>
<path style="fill:#263A7A;" d="M512,256c0-3.275-0.083-6.532-0.203-9.778L391.882,126.281L165.783,359.434l-45.48,11.354
	l30.039,34.013l-8.12,14.324l91.939,91.939C241.362,511.672,248.642,512,256,512C397.384,512,512,397.384,512,256z"/>
<g>
	<polygon style="fill:#D3D3D3;" points="156.013,419.125 142.222,419.125 142.222,362.236 170.667,362.236 	"/>
	<polygon style="fill:#D3D3D3;" points="355.987,419.125 369.778,419.125 369.778,362.236 341.333,362.236 	"/>
</g>
<path style="fill:#FFFFFF;" d="M134.537,376.458h242.926c11.466,0,20.759-9.294,20.759-20.759V141.217
	c0-11.466-9.294-20.759-20.759-20.759H134.537c-11.466,0-20.759,9.294-20.759,20.759v214.481
	C113.778,367.164,123.071,376.458,134.537,376.458z"/>
<path style="fill:#D8D8D8;" d="M377.463,120.458H256v256h121.463c11.466,0,20.759-9.294,20.759-20.759V141.217
	C398.222,129.751,388.929,120.458,377.463,120.458z"/>
<g>
	<rect x="113.778" y="201.473" style="fill:#707070;" width="284.444" height="8.62"/>
	<rect x="113.778" y="286.806" style="fill:#707070;" width="284.444" height="8.62"/>
	<path style="fill:#707070;" d="M264.62,170.882H247.38c-4.284,0-7.758-3.474-7.758-7.758s3.474-7.758,7.758-7.758h17.239
		c4.284,0,7.758,3.474,7.758,7.758S268.903,170.882,264.62,170.882z"/>
	<path style="fill:#707070;" d="M264.62,256.215H247.38c-4.284,0-7.758-3.474-7.758-7.758s3.474-7.758,7.758-7.758h17.239
		c4.284,0,7.758,3.474,7.758,7.758S268.903,256.215,264.62,256.215z"/>
	<path style="fill:#707070;" d="M264.62,341.549H247.38c-4.284,0-7.758-3.474-7.758-7.758s3.474-7.758,7.758-7.758h17.239
		c4.284,0,7.758,3.474,7.758,7.758S268.903,341.549,264.62,341.549z"/>
</g>
<g>
	<rect x="256" y="201.473" style="fill:#515151;" width="142.222" height="8.62"/>
	<rect x="256" y="286.806" style="fill:#515151;" width="142.222" height="8.62"/>
	<path style="fill:#515151;" d="M264.62,155.367H256v15.515h8.62c4.284,0,7.758-3.474,7.758-7.758S268.903,155.367,264.62,155.367z"
		/>
	<path style="fill:#515151;" d="M264.62,240.7H256v15.515h8.62c4.284,0,7.758-3.474,7.758-7.758S268.903,240.7,264.62,240.7z"/>
	<path style="fill:#515151;" d="M264.62,326.034H256v15.515h8.62c4.284,0,7.758-3.474,7.758-7.758S268.903,326.034,264.62,326.034z"
		/>
</g>
</svg>