<svg xmlns="http://www.w3.org/2000/svg" version="1.1" xmlns:xlink="http://www.w3.org/1999/xlink" xmlns:svgjs="http://svgjs.dev/svgjs" viewBox="0 0 800 800"><g transform="matrix(0.984807753012208,-0.17364817766693033,0.17364817766693033,0.984807753012208,-74.38237227165536,75.53616986188894)"><path d="M629.057055523369 295.40957857243217C645.7293684497856 285.7855479045006 666.2706925853706 285.7855479045006 682.9430055117873 295.4122728699316L979.0570778881431 466.37353210068665C995.7293908145598 475.99756276861814 1006.0000528823523 493.7880091572945 1006.0000528823523 513.038764790657V854.961283252167C1006.0000528823523 874.2120388855295 995.7293908145598 892.0024852742059 979.0570778881431 901.6292102396368L682.9430055117873 1072.5904694703918C666.2706925853706 1082.2145001383233 645.7293684497856 1082.2145001383233 629.057055523369 1072.5877751728924L332.9429831470131 901.6265159421373C316.2706702205965 892.0024852742059 306.00000815280396 874.2120388855295 306.00000815280396 854.961283252167V513.038764790657C306.00000815280396 493.7880091572945 316.2706702205965 475.99756276861814 332.9429831470131 466.37083780318727L629.057055523369 295.40957857243217Z " stroke-width="4" stroke="#e0d194" fill="none" opacity="0.1" transform="rotate(100, 656, 408)"></path><path d="M579.3658377089821 260.37064180616505C595.1045011115193 251.2855568556377 614.4955110955118 251.2855568556377 630.234174498049 260.3731852230045L909.765858821329 421.7606139368373C925.5045222238662 430.8456988873646 935.2000272158624 447.6398802782751 935.2000272158624 465.8125935961693V788.5874510238348C935.2000272158624 806.760164341729 925.5045222238662 823.5543457326394 909.765858821329 832.6419741000062L630.234174498049 994.0294028138389C614.4955110955118 1003.1144877643663 595.1045011115193 1003.1144877643663 579.3658377089821 994.0268593969996L299.83415338570217 832.6394306831668C284.09548998316495 823.5543457326394 274.39998499116876 806.760164341729 274.39998499116876 788.5874510238348V465.8125935961693C274.39998499116876 447.6398802782751 284.09548998316495 430.8456988873646 299.83415338570217 421.7580705199979L579.3658377089821 260.37064180616505Z " stroke-width="4.8" stroke="#d4c284" fill="none" opacity="0.28" transform="rotate(78, 656, 408)"></path><path d="M529.6746198945955 225.3316745223197C544.4796337732533 216.78553528919656 562.720329605653 216.78553528919656 577.5253434843108 225.33406705849922L840.4746397545149 377.1476652554097C855.2796536331729 385.6938044885329 864.4000015493726 401.49172088167745 864.4000015493726 418.58639188410336V722.2135882779244C864.4000015493726 739.3082592803503 855.2796536331729 755.1061756734948 840.4746397545149 763.6547074427974L577.5253434843108 915.468305639708C562.720329605653 924.0144448728311 544.4796337732533 924.0144448728311 529.6746198945955 915.4659131035285L266.7253236243914 763.652314906618C251.9203097457335 755.1061756734948 242.7999618295337 739.3082592803503 242.7999618295337 722.2135882779244V418.58639188410336C242.7999618295337 401.49172088167745 251.9203097457335 385.6938044885329 266.7253236243914 377.14527271923026L529.6746198945955 225.3316745223197Z " stroke-width="5.6" stroke="#c7b173" fill="none" opacity="0.45999999999999996" transform="rotate(56, 656, 408)"></path><path d="M479.98346311536477 190.29273775605265C493.8548274701435 182.28554424033362 510.9452091509503 182.28554424033362 524.8165735057288 190.29497941157217L771.183481722857 332.53474709156035C785.0548460776355 340.5419406072794 793.6000369180389 355.34359200265806 793.6000369180389 371.3602206896157V655.839756049592C793.6000369180389 671.8563847365497 785.0548460776355 686.6580361319284 771.183481722857 694.667471303167L524.8165735057288 836.907238983155C510.9452091509503 844.914432498874 493.8548274701435 844.914432498874 479.98346311536477 836.9049973276356L233.61655489823676 694.6652296476474C219.74519054345814 686.6580361319284 211.19999970305474 671.8563847365497 211.19999970305474 655.839756049592V371.3602206896157C211.19999970305474 355.34359200265806 219.74519054345814 340.5419406072794 233.61655489823676 332.5325054360409L479.98346311536477 190.29273775605265Z " stroke-width="6.4" stroke="#b99f5e" fill="none" opacity="0.64" transform="rotate(34, 656, 408)"></path><path d="M430.2922453009781 155.25380098978547C443.22996013187736 147.78555319147063 459.1700276610914 147.78555319147063 472.1077424919907 155.25589176464507L701.8922626560429 287.921828927711C714.8299774869422 295.3900767260258 722.8000112515492 309.1954631236386 722.8000112515492 324.13404949512795V589.4659238212598C722.8000112515492 604.4045101927491 714.8299774869422 618.209896590362 701.8922626560429 625.6802351635363L472.1077424919907 758.3461723266023C459.1700276610914 765.814420124917 443.22996013187736 765.814420124917 430.2922453009781 758.3440815517426L200.5077251369259 625.6781443886769C187.57001030602663 618.209896590362 179.5999765414196 604.4045101927491 179.5999765414196 589.4659238212598V324.13404949512795C179.5999765414196 309.1954631236386 187.57001030602663 295.3900767260258 200.5077251369259 287.9197381528515L430.2922453009781 155.25380098978547Z " stroke-width="7.2" stroke="#aa8b43" fill="none" opacity="0.82" transform="rotate(12, 656, 408)"></path><path d="M380.6010732629585 120.21486422351836C392.6051385699784 113.28556214260766 407.3948919475997 113.28556214260766 419.39895725461963 120.21680411771791L632.601089365596 243.3089107638616C644.6051546726158 250.23821284477225 652.0000313614264 263.0473342446192 652.0000313614264 276.9078783006402V523.0920915929275C652.0000313614264 536.9526356489484 644.6051546726158 549.7617570487955 632.601089365596 556.6929990239057L419.39895725461963 679.7851056700492C407.3948919475997 686.7144077509599 392.6051385699784 686.7144077509599 380.6010732629585 679.7831657758497L167.39894115198223 556.6910591297061C155.3948758449623 549.7617570487955 147.99999915615166 536.9526356489484 147.99999915615166 523.0920915929275V276.9078783006402C147.99999915615166 263.0473342446192 155.3948758449623 250.23821284477225 167.39894115198223 243.30697086966205L380.6010732629585 120.21486422351836Z " stroke-width="8" stroke="#99730a" fill="none" opacity="0.9999999999999999" transform="rotate(-10, 656, 408)"></path></g></svg>