<?xml version="1.0" encoding="iso-8859-1"?>
<!-- Uploaded to: SVG Repo, www.svgrepo.com, Generator: SVG Repo Mixer Tools -->
<svg version="1.1" id="Layer_1" xmlns="http://www.w3.org/2000/svg" xmlns:xlink="http://www.w3.org/1999/xlink" 
	 viewBox="0 0 512 512" xml:space="preserve">
<circle style="fill:#263A7A;" cx="256" cy="256" r="256"/>
<g>
	<polygon style="fill:#121149;" points="211.178,227.556 274.239,290.616 211.178,290.616 	"/>
	<path style="fill:#121149;" d="M355.23,163.619c-36.714,2.029-81.177-13.041-94.058,32.044c-6.896,27.582,0,56.889-12.067,79.3
		c-24.135,48.269-65.508,79.3-122.397,91.367c-1.67,0.303-3.324,0.695-4.97,1.122l144.332,144.332
		c117.014-4.529,213.885-87.576,239.373-197.954L355.23,163.619z"/>
</g>
<path style="fill:#FFEDB5;" d="M266.343,341.333h-20.687v-133.47c0-35.142,28.589-63.733,63.731-63.733s63.733,28.591,63.733,63.733
	h-20.687c0-23.736-19.309-43.046-43.046-43.046c-23.735,0-43.044,19.309-43.044,43.046V341.333z"/>
<path style="fill:#FEE187;" d="M309.388,144.131c-22.711,0-42.672,11.95-53.962,29.884v167.319h10.917v-133.47
	c0-23.736,19.309-43.046,43.044-43.046c23.736,0,43.046,19.309,43.046,43.046h20.687
	C373.119,172.722,344.528,144.131,309.388,144.131z"/>
<rect x="187.044" y="227.556" style="fill:#FFEDB5;" width="24.135" height="56.889"/>
<rect x="300.822" y="227.556" style="fill:#FEE187;" width="24.135" height="56.889"/>
<path style="fill:#71E2EF;" d="M312.17,398.222H199.83c-63.235,0-114.497-51.262-114.497-114.497V256h341.333v27.726
	C426.667,346.96,375.405,398.222,312.17,398.222z"/>
<path style="fill:#366695;" d="M255.426,256v142.222h56.744c63.235,0,114.497-51.262,114.497-114.497V256H255.426z"/>
</svg>