<?xml version="1.0" encoding="iso-8859-1"?>
<!-- Uploaded to: SVG Repo, www.svgrepo.com, Generator: SVG Repo Mixer Tools -->
<svg height="800px" width="800px" version="1.1" id="Layer_1" xmlns="http://www.w3.org/2000/svg" xmlns:xlink="http://www.w3.org/1999/xlink" 
	 viewBox="0 0 512 512" xml:space="preserve">
<circle style="fill:#E03A00;" cx="256" cy="256" r="256"/>
<path style="fill:#940030;" d="M511.136,277.013L377.084,142.96l-213.025,72.097l-19.251,242.802l45.663,45.663
	C211.387,509.043,233.348,512,256,512C390.309,512,500.446,408.567,511.136,277.013z"/>
<g>
	<polygon style="fill:#FEE187;" points="158.972,457.859 144.808,457.859 144.808,201.859 170.667,178.371 	"/>
	<polygon style="fill:#FEE187;" points="353.028,457.859 367.192,457.859 367.192,201.859 341.333,178.371 	"/>
</g>
<path style="fill:#FFFFFF;" d="M363.744,232.405H148.256c-10.473,0-18.963-8.49-18.963-18.963v-57.104
	c0-10.473,8.49-18.963,18.963-18.963h215.488c10.473,0,18.963,8.49,18.963,18.963v57.104
	C382.707,223.915,374.217,232.405,363.744,232.405z"/>
<path style="fill:#DBDBDB;" d="M363.744,137.375H255.426v95.03h108.318c10.473,0,18.963-8.49,18.963-18.963v-57.104
	C382.707,145.863,374.217,137.375,363.744,137.375z"/>
<circle style="fill:#FFC61B;" cx="256" cy="184.889" r="14.222"/>
<path style="fill:#D48B07;" d="M256,170.667c-0.193,0-0.383,0.021-0.574,0.029v28.386c0.191,0.007,0.381,0.029,0.574,0.029
	c7.854,0,14.222-6.368,14.222-14.222S263.854,170.667,256,170.667z"/>
</svg>