<?xml version="1.0" encoding="iso-8859-1"?>
<!-- Uploaded to: SVG Repo, www.svgrepo.com, Generator: SVG Repo Mixer Tools -->
<svg height="800px" width="800px" version="1.1" id="Layer_1" xmlns="http://www.w3.org/2000/svg" xmlns:xlink="http://www.w3.org/1999/xlink" 
	 viewBox="0 0 512 512" xml:space="preserve">
<circle style="fill:#FFAD9E;" cx="256" cy="256" r="256"/>
<path style="fill:#FF6262;" d="M510.736,230.486l-86.173-86.175L87.237,338.951l172.996,172.996
	C399.663,509.683,512,395.969,512,256C512,247.389,511.567,238.878,510.736,230.486z"/>
<path style="fill:#FFFFFF;" d="M107.025,341.333h297.948c11.981,0,21.692-9.712,21.692-21.692V163.916
	c0-11.981-9.712-21.694-21.692-21.694H107.025c-11.981,0-21.692,9.712-21.692,21.694v155.726
	C85.333,331.621,95.046,341.333,107.025,341.333z"/>
<path style="fill:#CECECE;" d="M404.973,142.222H256.286v199.111h148.687c11.981,0,21.692-9.712,21.692-21.692V163.914
	C426.667,151.935,416.954,142.222,404.973,142.222z"/>
<path style="fill:#494949;" d="M404.973,136.189H107.025c-15.288,0-27.726,12.438-27.726,27.727V319.64
	c0,15.289,12.438,27.727,27.726,27.727h43.901l-12.252,8.911c-2.114,1.539-2.996,4.262-2.189,6.746
	c0.809,2.486,3.124,4.168,5.737,4.168h227.556c2.613,0,4.929-1.683,5.737-4.168c0.809-2.484-0.076-5.208-2.189-6.746l-12.252-8.911
	h43.899c15.289,0,27.727-12.438,27.727-27.727V163.916C432.7,148.627,420.262,136.189,404.973,136.189z M107.025,335.3
	c-8.635,0-15.658-7.025-15.658-15.66V163.916c0-8.635,7.023-15.66,15.658-15.66h297.948c8.635,0,15.66,7.025,15.66,15.66V319.64
	c0,8.635-7.025,15.66-15.66,15.66H107.025z"/>
<path d="M404.973,136.189H256.288v12.067h148.685c8.635,0,15.66,7.025,15.66,15.66V319.64c0,8.635-7.025,15.66-15.66,15.66H256.288
	v31.892h113.49c2.613,0,4.929-1.683,5.737-4.168c0.809-2.484-0.076-5.208-2.189-6.746l-12.252-8.911h43.899
	c15.289,0,27.727-12.438,27.727-27.727V163.916C432.7,148.627,420.262,136.189,404.973,136.189z"/>
</svg>