<?xml version="1.0" encoding="iso-8859-1"?>
<!-- Uploaded to: SVG Repo, www.svgrepo.com, Generator: SVG Repo Mixer Tools -->
<svg height="800px" width="800px" version="1.1" id="Layer_1" xmlns="http://www.w3.org/2000/svg" xmlns:xlink="http://www.w3.org/1999/xlink" 
	 viewBox="0 0 512 512" xml:space="preserve">
<circle style="fill:#366796;" cx="256" cy="256" r="256"/>
<path style="fill:#273B7A;" d="M343.106,87.24L106.882,405.118l102.665,102.666C224.613,510.545,240.137,512,256,512
	c141.341,0,255.928-114.545,255.998-255.867L343.106,87.24z"/>
<path style="fill:#FFEDB5;" d="M369.778,170.667c0-62.838-50.94-113.778-113.778-113.778s-113.778,50.94-113.778,113.778v199.111
	h227.556V170.667z"/>
<path style="fill:#FEE187;" d="M369.778,170.667c0-62.838-50.94-113.778-113.778-113.778v312.889h113.778V170.667z"/>
<path style="fill:#71E2EF;" d="M376.673,362.882V170.667c0-66.539-54.134-120.673-120.673-120.673s-120.673,54.134-120.673,120.673
	v192.215h-28.444v42.236h298.236v-42.236H376.673z M262.896,362.882v-43.098h99.987v43.098H262.896z M151.302,149.118h97.802v71.542
	h-99.987v-49.993C149.118,163.287,149.871,156.081,151.302,149.118z M362.882,170.667v49.993h-99.987v-71.542h97.802
	C362.129,156.081,362.882,163.287,362.882,170.667z M249.104,234.451v71.542h-99.987v-71.542H249.104z M262.896,234.451h99.987
	v71.542h-99.987V234.451z M356.85,135.327h-93.955V64.031C306.436,66.82,342.952,95.784,356.85,135.327z M249.104,64.031v71.296
	h-93.956C169.046,95.784,205.564,66.82,249.104,64.031z M149.118,319.785h99.987v43.098h-99.987V319.785z"/>
<path style="fill:#38C6D9;" d="M405.118,362.882h-28.444V170.667c0-66.539-54.134-120.673-120.673-120.673v355.125h149.118V362.882z
	 M262.896,64.031c43.541,2.789,80.058,31.753,93.955,71.296h-93.955V64.031z M362.882,362.882h-99.987v-43.098h99.987V362.882z
	 M362.882,305.993h-99.987v-71.542h99.987V305.993z M362.882,220.66h-99.987v-71.542h97.802c1.431,6.963,2.184,14.169,2.184,21.549
	V220.66z"/>
</svg>