<svg class="svg-standalone-icon" width="100%" viewBox="219.84478890976544 115 110.31042218046917 154.63075285933854">
    <g data-paper-data="{&quot;isIcon&quot;:&quot;true&quot;,&quot;iconType&quot;:&quot;icon&quot;,&quot;rawIconId&quot;:&quot;3697773&quot;,&quot;selectedEffects&quot;:{&quot;container&quot;:&quot;&quot;,&quot;transformation&quot;:&quot;&quot;,&quot;pattern&quot;:&quot;&quot;},&quot;isDetailed&quot;:true,&quot;iconStyle&quot;:&quot;standalone&quot;,&quot;bounds&quot;:{&quot;x&quot;:219.84478890976544,&quot;y&quot;:115,&quot;width&quot;:110.31042218046917,&quot;height&quot;:154.63075285933854},&quot;fillRule&quot;:&quot;evenodd&quot;,&quot;suitableAsStandaloneIcon&quot;:true}"
        fill-rule="evenodd">
        <g data-paper-data="{&quot;isPathIcon&quot;:true}">
            <path
                d="M287.91505,158.64617c0.011,-0.68 0.016,-1.36101 0.016,-2.04201c0,-0.68 -0.005,-1.36101 -0.016,-2.04101c-0.01,-0.68 -0.026,-1.35901 -0.046,-2.03601c-0.021,-0.678 -0.047,-1.35401 -0.078,-2.02701c-0.031,-0.674 -0.067,-1.34401 -0.109,-2.01201c-0.041,-0.668 -0.087,-1.33201 -0.139,-1.99301c-0.051,-0.66 -0.108,-1.31601 -0.169,-1.96801c-0.06133,-0.65134 -0.12767,-1.29767 -0.199,-1.93901c-0.071,-0.641 -0.148,-1.276 -0.228,-1.90501c-0.081,-0.629 -0.167,-1.251 -0.258,-1.86701c-0.09,-0.615 -0.185,-1.223 -0.285,-1.82401c-0.1,-0.6 -0.204,-1.192 -0.313,-1.77701c-0.109,-0.583 -0.222,-1.159 -0.339,-1.72501c-0.118,-0.566 -0.24,-1.122 -0.366,-1.66901c-0.126,-0.547 -0.256,-1.084 -0.39,-1.61001c-0.135,-0.526 -0.273,-1.042 -0.415,-1.54601c-0.142,-0.505 -0.288,-0.998 -0.438,-1.47901c-0.149,-0.482 -0.302,-0.951 -0.459,-1.40801c-0.157,-0.458 -0.317,-0.902 -0.481,-1.33401c-0.163,-0.432 -0.33,-0.851 -0.5,-1.257c-0.17,-0.405 -0.343,-0.797 -0.519,-1.175c-0.176,-0.379 -0.355,-0.743 -0.536,-1.093c-0.182,-0.35 -0.366,-0.685 -0.552,-1.006c-0.187,-0.321 -0.376,-0.627 -0.567,-0.919c-0.192,-0.291 -0.385,-0.567 -0.581,-0.827c-0.195,-0.261 -0.393,-0.506 -0.592,-0.735c-0.199,-0.229 -0.4,-0.443 -0.602,-0.641c-0.203,-0.197 -0.407,-0.379 -0.612,-0.544c-0.205,-0.166 -0.412,-0.315 -0.619,-0.448c-0.208,-0.132 -0.416,-0.249 -0.626,-0.349c-0.209,-0.1 -0.419,-0.183 -0.63,-0.25c-0.21,-0.066 -0.421,-0.116 -0.632,-0.15c-0.212,-0.033 -0.423,-0.05 -0.635,-0.05c-0.212,0 -0.423,0.017 -0.635,0.05c-0.211,0.034 -0.422,0.084 -0.632,0.15c-0.211,0.067 -0.421,0.15 -0.63,0.25c-0.21,0.1 -0.418,0.217 -0.626,0.349c-0.207,0.133 -0.414,0.282 -0.619,0.448c-0.20533,0.16533 -0.40933,0.34667 -0.612,0.544c-0.202,0.198 -0.403,0.412 -0.602,0.641c-0.199,0.229 -0.397,0.474 -0.592,0.735c-0.196,0.26 -0.389,0.536 -0.581,0.827c-0.191,0.292 -0.38,0.598 -0.567,0.919c-0.186,0.321 -0.37,0.656 -0.552,1.006c-0.181,0.35 -0.36,0.714 -0.536,1.093c-0.176,0.378 -0.349,0.77 -0.519,1.175c-0.17,0.406 -0.337,0.825 -0.5,1.257c-0.164,0.432 -0.324,0.876 -0.481,1.33401c-0.157,0.457 -0.31,0.926 -0.459,1.40801c-0.15,0.481 -0.296,0.974 -0.438,1.47901c-0.142,0.504 -0.28,1.02 -0.415,1.54601c-0.134,0.526 -0.264,1.063 -0.39,1.61001c-0.126,0.547 -0.248,1.103 -0.366,1.66901c-0.117,0.566 -0.23,1.142 -0.339,1.72501c-0.109,0.585 -0.213,1.177 -0.313,1.77701c-0.1,0.601 -0.195,1.209 -0.285,1.82401c-0.091,0.616 -0.177,1.238 -0.258,1.86701c-0.08,0.629 -0.157,1.264 -0.228,1.90501c-0.07133,0.64134 -0.13767,1.28767 -0.199,1.93901c-0.061,0.652 -0.118,1.30801 -0.169,1.96801c-0.052,0.661 -0.098,1.32501 -0.139,1.99301c-0.042,0.668 -0.078,1.33801 -0.109,2.01201c-0.031,0.673 -0.057,1.34901 -0.078,2.02701c-0.02,0.677 -0.036,1.35601 -0.046,2.03601c-0.011,0.68 -0.016,1.36101 -0.016,2.04101c0,0.681 0.005,1.36201 0.016,2.04201c0.01,0.68 0.026,1.35901 0.046,2.03601c0.021,0.678 0.047,1.35401 0.078,2.02701c0.031,0.674 0.067,1.34401 0.109,2.01201c0.041,0.668 0.087,1.33201 0.139,1.99301c0.051,0.66 0.108,1.31601 0.169,1.96701c0.06133,0.652 0.12767,1.29867 0.199,1.94001c0.071,0.641 0.148,1.276 0.228,1.90501c0.081,0.629 0.167,1.251 0.258,1.86701c0.09,0.615 0.185,1.223 0.285,1.82401c0.1,0.6 0.204,1.192 0.313,1.77601c0.109,0.584 0.222,1.159 0.339,1.72601c0.118,0.566 0.24,1.122 0.366,1.66901c0.126,0.547 0.256,1.084 0.39,1.61001c0.135,0.526 0.273,1.042 0.415,1.54601c0.142,0.505 0.288,0.998 0.438,1.47901c0.149,0.482 0.302,0.951 0.459,1.40801c0.157,0.458 0.317,0.902 0.481,1.33401c0.163,0.432 0.33,0.851 0.5,1.257c0.17,0.40533 0.343,0.797 0.519,1.175c0.176,0.379 0.355,0.743 0.536,1.093c0.182,0.35 0.366,0.685 0.552,1.006c0.187,0.321 0.376,0.627 0.567,0.919c0.192,0.291 0.385,0.566 0.581,0.827c0.195,0.26 0.393,0.505 0.592,0.735c0.199,0.229 0.4,0.443 0.602,0.64c0.20267,0.198 0.40667,0.37967 0.612,0.545c0.205,0.166 0.412,0.315 0.619,0.448c0.208,0.132 0.416,0.249 0.626,0.349c0.209,0.099 0.419,0.183 0.63,0.249c0.21,0.067 0.421,0.117 0.632,0.151c0.212,0.033 0.423,0.05 0.635,0.05c0.212,0 0.423,-0.017 0.635,-0.05c0.211,-0.034 0.422,-0.084 0.632,-0.151c0.211,-0.066 0.421,-0.15 0.63,-0.249c0.21,-0.1 0.418,-0.217 0.626,-0.349c0.207,-0.133 0.414,-0.282 0.619,-0.448c0.205,-0.165 0.409,-0.347 0.612,-0.545c0.202,-0.197 0.403,-0.411 0.602,-0.64c0.199,-0.23 0.397,-0.475 0.592,-0.735c0.196,-0.261 0.389,-0.536 0.581,-0.827c0.191,-0.292 0.38,-0.598 0.567,-0.919c0.186,-0.321 0.37,-0.656 0.552,-1.006c0.181,-0.35 0.36,-0.714 0.536,-1.093c0.176,-0.378 0.349,-0.77 0.519,-1.175c0.17,-0.406 0.337,-0.825 0.5,-1.257c0.164,-0.432 0.324,-0.876 0.481,-1.33401c0.15667,-0.45734 0.30967,-0.92667 0.459,-1.40801c0.15,-0.481 0.296,-0.974 0.438,-1.47901c0.142,-0.504 0.28,-1.02 0.415,-1.54601c0.134,-0.526 0.264,-1.063 0.39,-1.61001c0.126,-0.547 0.248,-1.103 0.366,-1.66901c0.117,-0.567 0.23,-1.142 0.339,-1.72601c0.109,-0.584 0.213,-1.176 0.313,-1.77601c0.1,-0.601 0.195,-1.209 0.285,-1.82401c0.091,-0.616 0.177,-1.238 0.258,-1.86701c0.08,-0.629 0.157,-1.264 0.228,-1.90501c0.07133,-0.64134 0.13767,-1.288 0.199,-1.94001c0.061,-0.651 0.118,-1.30701 0.169,-1.96701c0.052,-0.661 0.098,-1.32501 0.139,-1.99301c0.042,-0.668 0.078,-1.33801 0.109,-2.01201c0.031,-0.673 0.057,-1.34901 0.078,-2.02701c0.02,-0.677 0.036,-1.35601 0.046,-2.03601z">
            </path>
            <path
                d="M263.92896,207.37635c-22.42409,-4.12902 -39.96715,-21.68108 -44.08417,-44.10717c22.41209,4.15202 39.94315,21.69208 44.08417,44.10717z">
            </path>
            <path
                d="M286.07104,207.37635c2.01001,-10.95304 7.29903,-21.03708 15.16706,-28.91811c7.87103,-7.88503 17.95807,-13.18305 28.91711,-15.18906c-4.11702,22.42609 -21.66008,39.97815 -44.08417,44.10717z">
            </path>
            <path
                d="M262.66395,218.16639c0.017,-0.106 0.025,-0.212 0.025,-0.317c0,-0.106 -0.008,-0.212 -0.025,-0.318c-0.017,-0.105 -0.042,-0.211 -0.075,-0.316c-0.03333,-0.10533 -0.075,-0.21033 -0.125,-0.315c-0.05,-0.105 -0.108,-0.209 -0.174,-0.313c-0.067,-0.104 -0.141,-0.207 -0.224,-0.309c-0.083,-0.103 -0.173,-0.205 -0.272,-0.306c-0.099,-0.101 -0.205,-0.202 -0.32,-0.301c-0.11467,-0.1 -0.23733,-0.19867 -0.368,-0.296c-0.13,-0.098 -0.268,-0.195 -0.413,-0.291c-0.145,-0.095 -0.298,-0.19 -0.459,-0.283c-0.16,-0.093 -0.328,-0.186 -0.503,-0.276c-0.175,-0.091 -0.357,-0.18 -0.546,-0.268c-0.189,-0.088 -0.385,-0.175 -0.587,-0.26c-0.203,-0.085 -0.412,-0.168 -0.628,-0.25c-0.216,-0.082 -0.438,-0.162 -0.667,-0.24c-0.228,-0.079 -0.463,-0.155 -0.703,-0.23c-0.24067,-0.07467 -0.48734,-0.14767 -0.74,-0.219c-0.252,-0.071 -0.509,-0.14 -0.772,-0.207c-0.263,-0.067 -0.531,-0.132 -0.805,-0.195c-0.273,-0.064 -0.551,-0.124 -0.834,-0.183c-0.283,-0.059 -0.57,-0.116 -0.862,-0.17c-0.292,-0.054 -0.588,-0.106 -0.888,-0.156c-0.3,-0.05 -0.604,-0.09767 -0.912,-0.143c-0.307,-0.045 -0.618,-0.088 -0.933,-0.129c-0.314,-0.04 -0.631,-0.078 -0.952,-0.114c-0.32,-0.036 -0.643,-0.069 -0.969,-0.099c-0.325,-0.031 -0.653,-0.059 -0.983,-0.085c-0.33,-0.026 -0.662,-0.049 -0.996,-0.07c-0.334,-0.02 -0.669,-0.038 -1.005,-0.054c-0.337,-0.015 -0.674,-0.028 -1.013,-0.039c-0.339,-0.01 -0.678,-0.018 -1.018,-0.023c-0.34,-0.005 -0.68,-0.008 -1.02,-0.008c-0.34,0 -0.68,0.003 -1.02,0.008c-0.34,0.005 -0.679,0.013 -1.018,0.023c-0.339,0.011 -0.676,0.024 -1.013,0.039c-0.336,0.016 -0.671,0.034 -1.005,0.054c-0.334,0.021 -0.666,0.044 -0.996,0.07c-0.33,0.026 -0.658,0.054 -0.983,0.085c-0.326,0.03 -0.649,0.063 -0.969,0.099c-0.321,0.036 -0.638,0.074 -0.952,0.114c-0.315,0.041 -0.626,0.084 -0.933,0.129c-0.308,0.04533 -0.612,0.093 -0.912,0.143c-0.3,0.05 -0.596,0.102 -0.888,0.156c-0.292,0.054 -0.579,0.111 -0.862,0.17c-0.283,0.059 -0.561,0.119 -0.834,0.183c-0.274,0.063 -0.542,0.128 -0.805,0.195c-0.263,0.067 -0.52,0.136 -0.772,0.207c-0.252,0.071 -0.499,0.144 -0.739,0.219c-0.241,0.075 -0.476,0.151 -0.704,0.23c-0.229,0.078 -0.451,0.158 -0.667,0.24c-0.216,0.082 -0.425,0.165 -0.628,0.25c-0.202,0.085 -0.398,0.172 -0.587,0.26c-0.189,0.088 -0.371,0.177 -0.546,0.268c-0.175,0.09 -0.343,0.183 -0.503,0.276c-0.16,0.093 -0.313,0.188 -0.459,0.283c-0.145,0.096 -0.283,0.193 -0.413,0.291c-0.131,0.097 -0.253,0.196 -0.368,0.296c-0.114,0.099 -0.221,0.2 -0.32,0.301c-0.099,0.101 -0.189,0.203 -0.272,0.306c-0.083,0.102 -0.157,0.205 -0.224,0.309c-0.066,0.104 -0.124,0.208 -0.174,0.313c-0.05,0.10467 -0.09167,0.20967 -0.125,0.315c-0.033,0.105 -0.058,0.211 -0.075,0.316c-0.017,0.106 -0.025,0.212 -0.025,0.318c0,0.105 0.008,0.211 0.025,0.317c0.017,0.106 0.042,0.211 0.075,0.316c0.03333,0.10533 0.075,0.21033 0.125,0.315c0.05,0.105 0.108,0.209 0.174,0.313c0.067,0.104 0.141,0.207 0.224,0.31c0.083,0.102 0.173,0.204 0.272,0.305c0.099,0.102 0.206,0.202 0.32,0.302c0.115,0.099 0.237,0.198 0.368,0.296c0.13,0.098 0.268,0.194 0.413,0.29c0.146,0.096 0.299,0.19 0.459,0.283c0.16,0.094 0.328,0.186 0.503,0.277c0.175,0.09 0.357,0.18 0.546,0.268c0.189,0.088 0.385,0.174 0.587,0.259c0.203,0.085 0.412,0.168 0.628,0.25c0.216,0.082 0.438,0.162 0.667,0.241c0.228,0.078 0.463,0.155 0.704,0.229c0.24,0.075 0.487,0.148 0.739,0.219c0.252,0.071 0.509,0.14 0.772,0.207c0.263,0.068 0.531,0.133 0.805,0.196c0.273,0.063 0.551,0.124 0.834,0.182c0.283,0.059 0.57,0.116 0.862,0.17c0.292,0.05467 0.588,0.107 0.888,0.157c0.3,0.05 0.604,0.097 0.912,0.142c0.307,0.046 0.618,0.088 0.933,0.129c0.314,0.04 0.631,0.079 0.952,0.114c0.32,0.036 0.643,0.069 0.969,0.1c0.325,0.03 0.653,0.059 0.983,0.084c0.33,0.026 0.662,0.049 0.996,0.07c0.334,0.02 0.669,0.039 1.005,0.054c0.337,0.016 0.674,0.029 1.013,0.039c0.339,0.01 0.678,0.018 1.018,0.023c0.34,0.005 0.68,0.008 1.02,0.008c0.34,0 0.68,-0.003 1.02,-0.008c0.34,-0.005 0.679,-0.013 1.018,-0.023c0.339,-0.011 0.676,-0.023 1.013,-0.039c0.336,-0.015 0.671,-0.034 1.005,-0.054c0.334,-0.021 0.666,-0.044 0.996,-0.07c0.33,-0.025 0.658,-0.054 0.983,-0.084c0.326,-0.031 0.649,-0.064 0.969,-0.1c0.321,-0.035 0.638,-0.074 0.952,-0.114c0.315,-0.041 0.626,-0.083 0.933,-0.129c0.308,-0.045 0.612,-0.092 0.912,-0.142c0.3,-0.05 0.596,-0.10233 0.888,-0.157c0.292,-0.054 0.579,-0.111 0.862,-0.17c0.283,-0.058 0.561,-0.119 0.834,-0.182c0.274,-0.063 0.542,-0.128 0.805,-0.196c0.263,-0.067 0.52,-0.136 0.772,-0.207c0.25267,-0.07067 0.49934,-0.14367 0.74,-0.219c0.24,-0.074 0.475,-0.151 0.703,-0.229c0.229,-0.079 0.451,-0.159 0.667,-0.241c0.216,-0.082 0.425,-0.165 0.628,-0.25c0.202,-0.085 0.398,-0.171 0.587,-0.259c0.189,-0.088 0.371,-0.178 0.546,-0.268c0.175,-0.091 0.343,-0.183 0.503,-0.277c0.161,-0.093 0.314,-0.187 0.459,-0.283c0.145,-0.096 0.283,-0.192 0.413,-0.29c0.13067,-0.098 0.25333,-0.19667 0.368,-0.296c0.115,-0.1 0.221,-0.2 0.32,-0.302c0.099,-0.101 0.189,-0.203 0.272,-0.305c0.083,-0.103 0.157,-0.206 0.224,-0.31c0.066,-0.104 0.124,-0.208 0.174,-0.313c0.05,-0.10467 0.09167,-0.20967 0.125,-0.315c0.033,-0.105 0.058,-0.21 0.075,-0.316z">
            </path>
            <path
                d="M328.86821,218.16639c0.017,-0.106 0.025,-0.212 0.025,-0.317c0,-0.106 -0.008,-0.212 -0.025,-0.318c-0.017,-0.105 -0.042,-0.211 -0.075,-0.316c-0.033,-0.105 -0.075,-0.21 -0.125,-0.315c-0.05,-0.105 -0.108,-0.209 -0.174,-0.313c-0.067,-0.104 -0.141,-0.207 -0.224,-0.309c-0.083,-0.103 -0.173,-0.205 -0.272,-0.306c-0.099,-0.101 -0.206,-0.202 -0.32,-0.301c-0.115,-0.1 -0.237,-0.199 -0.368,-0.296c-0.13,-0.098 -0.268,-0.195 -0.413,-0.291c-0.146,-0.095 -0.299,-0.19 -0.459,-0.283c-0.16,-0.093 -0.328,-0.186 -0.503,-0.276c-0.175,-0.091 -0.357,-0.18 -0.546,-0.268c-0.189,-0.088 -0.385,-0.175 -0.587,-0.26c-0.203,-0.085 -0.412,-0.168 -0.628,-0.25c-0.216,-0.082 -0.438,-0.162 -0.667,-0.24c-0.228,-0.079 -0.463,-0.155 -0.704,-0.23c-0.24,-0.075 -0.487,-0.148 -0.739,-0.219c-0.252,-0.071 -0.509,-0.14 -0.772,-0.207c-0.263,-0.067 -0.531,-0.132 -0.805,-0.195c-0.273,-0.064 -0.551,-0.124 -0.834,-0.183c-0.283,-0.059 -0.57,-0.116 -0.862,-0.17c-0.292,-0.054 -0.588,-0.106 -0.888,-0.156c-0.3,-0.05 -0.604,-0.09767 -0.912,-0.143c-0.307,-0.045 -0.618,-0.088 -0.933,-0.129c-0.314,-0.04 -0.631,-0.078 -0.952,-0.114c-0.32,-0.036 -0.643,-0.069 -0.969,-0.099c-0.325,-0.031 -0.653,-0.059 -0.983,-0.085c-0.33,-0.026 -0.662,-0.049 -0.996,-0.07c-0.334,-0.02 -0.669,-0.038 -1.005,-0.054c-0.337,-0.015 -0.674,-0.028 -1.013,-0.039c-0.339,-0.01 -0.678,-0.018 -1.018,-0.023c-0.34,-0.005 -0.68,-0.008 -1.02,-0.008c-0.34,0 -0.68,0.003 -1.02,0.008c-0.34,0.005 -0.679,0.013 -1.018,0.023c-0.339,0.011 -0.676,0.024 -1.013,0.039c-0.336,0.016 -0.671,0.034 -1.005,0.054c-0.334,0.021 -0.666,0.044 -0.996,0.07c-0.33,0.026 -0.658,0.054 -0.983,0.085c-0.326,0.03 -0.649,0.063 -0.969,0.099c-0.321,0.036 -0.638,0.074 -0.952,0.114c-0.315,0.041 -0.626,0.084 -0.933,0.129c-0.308,0.045 -0.612,0.093 -0.912,0.143c-0.3,0.05 -0.596,0.102 -0.888,0.156c-0.292,0.054 -0.579,0.111 -0.862,0.17c-0.283,0.059 -0.561,0.119 -0.834,0.183c-0.274,0.063 -0.542,0.128 -0.805,0.195c-0.263,0.067 -0.52,0.136 -0.772,0.207c-0.253,0.071 -0.499,0.144 -0.739,0.219c-0.241,0.075 -0.476,0.151 -0.704,0.23c-0.229,0.078 -0.451,0.158 -0.667,0.24c-0.216,0.082 -0.425,0.165 -0.628,0.25c-0.202,0.085 -0.398,0.172 -0.587,0.26c-0.189,0.088 -0.371,0.177 -0.546,0.268c-0.175,0.09 -0.343,0.183 -0.503,0.276c-0.161,0.093 -0.314,0.188 -0.459,0.283c-0.145,0.096 -0.283,0.193 -0.413,0.291c-0.131,0.097 -0.253,0.196 -0.368,0.296c-0.114,0.099 -0.221,0.2 -0.32,0.301c-0.099,0.101 -0.189,0.203 -0.272,0.306c-0.083,0.102 -0.157,0.205 -0.224,0.309c-0.066,0.104 -0.124,0.208 -0.174,0.313c-0.05,0.105 -0.092,0.21 -0.125,0.315c-0.033,0.105 -0.058,0.211 -0.075,0.316c-0.017,0.106 -0.025,0.212 -0.025,0.318c0,0.105 0.008,0.211 0.025,0.317c0.017,0.106 0.042,0.211 0.075,0.316c0.033,0.106 0.075,0.211 0.125,0.315c0.05,0.105 0.108,0.209 0.174,0.313c0.067,0.104 0.141,0.207 0.224,0.31c0.083,0.102 0.173,0.204 0.272,0.305c0.09867,0.10133 0.20533,0.202 0.32,0.302c0.115,0.099 0.237,0.198 0.368,0.296c0.13,0.098 0.268,0.194 0.413,0.29c0.145,0.096 0.298,0.19 0.459,0.283c0.16,0.094 0.328,0.186 0.503,0.277c0.175,0.09 0.357,0.18 0.546,0.268c0.189,0.088 0.385,0.174 0.587,0.259c0.203,0.085 0.412,0.168 0.628,0.25c0.216,0.082 0.438,0.162 0.667,0.241c0.22867,0.078 0.46334,0.15433 0.704,0.229c0.24,0.075 0.486,0.148 0.739,0.219c0.252,0.071 0.509,0.14 0.772,0.207c0.263,0.068 0.531,0.133 0.805,0.196c0.273,0.063 0.551,0.124 0.834,0.182c0.283,0.059 0.57,0.116 0.862,0.17c0.292,0.05467 0.588,0.107 0.888,0.157c0.3,0.05 0.604,0.097 0.912,0.142c0.307,0.046 0.618,0.088 0.933,0.129c0.314,0.04 0.631,0.079 0.952,0.114c0.32,0.036 0.643,0.069 0.969,0.1c0.325,0.03 0.653,0.059 0.983,0.084c0.33,0.026 0.662,0.049 0.996,0.07c0.334,0.02 0.669,0.039 1.005,0.054c0.337,0.016 0.674,0.029 1.013,0.039c0.339,0.01 0.678,0.018 1.018,0.023c0.34,0.005 0.68,0.008 1.02,0.008c0.34,0 0.68,-0.003 1.02,-0.008c0.34,-0.005 0.679,-0.013 1.018,-0.023c0.339,-0.011 0.676,-0.023 1.013,-0.039c0.336,-0.015 0.671,-0.034 1.005,-0.054c0.334,-0.021 0.666,-0.044 0.996,-0.07c0.33,-0.025 0.658,-0.054 0.983,-0.084c0.326,-0.031 0.649,-0.064 0.969,-0.1c0.321,-0.035 0.638,-0.074 0.952,-0.114c0.315,-0.041 0.626,-0.083 0.933,-0.129c0.308,-0.045 0.612,-0.092 0.912,-0.142c0.3,-0.05 0.596,-0.102 0.888,-0.157c0.292,-0.054 0.579,-0.111 0.862,-0.17c0.283,-0.058 0.561,-0.119 0.834,-0.182c0.274,-0.063 0.542,-0.128 0.805,-0.196c0.263,-0.067 0.52,-0.136 0.772,-0.207c0.252,-0.071 0.499,-0.144 0.739,-0.219c0.24067,-0.07467 0.47534,-0.151 0.704,-0.229c0.229,-0.079 0.451,-0.159 0.667,-0.241c0.216,-0.082 0.425,-0.165 0.628,-0.25c0.202,-0.085 0.398,-0.171 0.587,-0.259c0.189,-0.088 0.371,-0.178 0.546,-0.268c0.175,-0.091 0.343,-0.183 0.503,-0.277c0.161,-0.093 0.313,-0.187 0.459,-0.283c0.145,-0.096 0.283,-0.192 0.413,-0.29c0.131,-0.098 0.253,-0.197 0.368,-0.296c0.11467,-0.1 0.22133,-0.20067 0.32,-0.302c0.099,-0.101 0.189,-0.203 0.272,-0.305c0.083,-0.103 0.157,-0.206 0.224,-0.31c0.066,-0.104 0.124,-0.208 0.174,-0.313c0.05,-0.104 0.092,-0.209 0.125,-0.315c0.033,-0.105 0.058,-0.21 0.075,-0.316z">
            </path>
            <path
                d="M290.49906,264.52457c8.52303,-8.57603 8.52303,-22.42409 0,-30.99912l-15.49906,-15.49906l-15.49906,15.49906c-7.29203,8.74403 -6.71103,21.60708 1.34001,29.65911c8.05103,8.05103 20.91408,8.63203 29.65811,1.34001z">
            </path>
        </g>
    </g>
</svg>