<?xml version="1.0" encoding="utf-8"?>
<svg viewBox="28.504 214.37 444.775 111.046" xmlns="http://www.w3.org/2000/svg">
  <g fill="#816040" fill-rule="nonzero" stroke="none" stroke-width="1" stroke-linecap="butt" stroke-linejoin="miter" stroke-miterlimit="10" stroke-dasharray="" stroke-dashoffset="0" font-family="none" font-weight="none" font-size="none" text-anchor="none" style="mix-blend-mode: normal" transform="matrix(0.9999999999999999, 0, 0, 0.9999999999999999, -22.624698638916016, 32.81474304199218)">
    <g data-paper-data="{&quot;isGlobalGroup&quot;:true,&quot;bounds&quot;:{&quot;x&quot;:65,&quot;y&quot;:196.21350864366946,&quot;width&quot;:420,&quot;height&quot;:77.57298271266109}}">
      <g data-paper-data="{&quot;isSecondaryText&quot;:true}">
        <path d="M195.66427,273.76093c1.40599,0 2.62025,-0.35789 3.61722,-1.44433l-0.12782,-0.08947c-0.85637,1.00976 -2.13455,1.36764 -3.48941,1.36764c-5.41945,0 -5.41945,-9.06223 0,-9.06223c1.17592,0 2.35184,0.30676 3.08039,0.99697c-0.31954,0 -0.58796,0.20451 -0.58796,0.53683c0,0.30676 0.24285,0.54961 0.54961,0.54961c0.29398,0 0.53683,-0.24285 0.53683,-0.54961c0,-0.16616 -0.07669,-0.30676 -0.19173,-0.40901c-0.93307,-0.94585 -2.00673,-1.29095 -3.38715,-1.29095c-6.5698,0 -6.5698,9.39456 0,9.39456z" data-paper-data="{&quot;glyphName&quot;:&quot;C&quot;,&quot;glyphIndex&quot;:0,&quot;firstGlyphOfWord&quot;:true,&quot;word&quot;:1}"/>
        <path d="M204.13738,267.35729c0.33232,0 0.49849,0.30676 0.49849,0.6263v4.00068c0,1.15035 1.09923,1.73831 2.28793,1.73831c0.81803,0 1.68719,-0.29398 2.22402,-0.86916v0.20451c0,0.4218 0.2812,0.57518 0.6263,0.57518c0.30676,0 0.66465,-0.12782 0.89472,-0.29398c-0.17894,0.06391 -0.31954,0.08947 -0.43458,0.08947c-0.30676,0 -0.35789,-0.24285 -0.35789,-0.77968v-5.47057l-1.22704,0.17894c0.34511,0 0.49849,0.30676 0.49849,0.6263v4.57585c-0.24285,0.71578 -1.41877,1.06088 -2.08342,1.06088c-0.89472,0 -1.72553,-0.44736 -1.69997,-1.63606v-4.80592z" data-paper-data="{&quot;glyphName&quot;:&quot;u&quot;,&quot;glyphIndex&quot;:1,&quot;word&quot;:1}"/>
        <path d="M214.72047,273.54364h2.33905c-0.43458,0 -0.79247,-0.33232 -0.79247,-0.94585v-9.19005l-1.23983,0.17894c0.34511,0 0.49849,0.30676 0.49849,0.6263v8.3848c0,0.61352 -0.37067,0.94585 -0.80525,0.94585z" data-paper-data="{&quot;glyphName&quot;:&quot;l&quot;,&quot;glyphIndex&quot;:2,&quot;word&quot;:1}"/>
        <path d="M222.08388,267.19113v4.69089c0,1.06088 0.52405,1.73831 1.58493,1.73831c0.38345,0 0.84359,-0.11504 1.41877,-0.43458l-0.05113,-0.06391c-0.35789,0.21729 -0.74134,0.34511 -1.08645,0.34511c-0.29398,0 -0.5624,-0.08947 -0.75412,-0.25563c-0.24285,-0.19173 -0.38345,-0.5624 -0.37067,-1.12479v-4.8954h1.71275v-0.08947h-1.71275v-2.08342c0,-0.02556 -0.01278,-0.03835 -0.02556,-0.03835c-0.01278,0 -0.02556,0.01278 -0.02556,0.03835c-0.06391,1.6105 -0.52405,2.07064 -1.59771,2.08342v0.08947z" data-paper-data="{&quot;glyphName&quot;:&quot;t&quot;,&quot;glyphIndex&quot;:3,&quot;word&quot;:1}"/>
        <path d="M228.78217,267.35729c0.33232,0 0.49849,0.30676 0.49849,0.6263v4.00068c0,1.15035 1.09923,1.73831 2.28793,1.73831c0.81803,0 1.68719,-0.29398 2.22402,-0.86916v0.20451c0,0.4218 0.2812,0.57518 0.6263,0.57518c0.30676,0 0.66465,-0.12782 0.89472,-0.29398c-0.17894,0.06391 -0.31954,0.08947 -0.43458,0.08947c-0.30676,0 -0.35789,-0.24285 -0.35789,-0.77968v-5.47057l-1.22704,0.17894c0.34511,0 0.49849,0.30676 0.49849,0.6263v4.57585c-0.24285,0.71578 -1.41877,1.06088 -2.08342,1.06088c-0.89472,0 -1.72553,-0.44736 -1.69997,-1.63606v-4.80592z" data-paper-data="{&quot;glyphName&quot;:&quot;u&quot;,&quot;glyphIndex&quot;:4,&quot;word&quot;:1}"/>
        <path d="M239.44497,273.55642h2.33905c-0.43458,0 -0.80525,-0.33232 -0.80525,-0.94585v-3.68113c0,-0.01278 0.01278,-0.02556 0.01278,-0.03835c0.24285,-0.89472 1.41877,-1.6744 2.46687,-1.6744c0.26842,0 0.52405,0.03835 0.75412,0.15338c-0.02556,0 -0.05113,0 -0.07669,0.01278c-0.26842,0.07669 -0.4218,0.34511 -0.34511,0.61352c0.06391,0.21729 0.25563,0.37067 0.47292,0.37067c0.05113,0 0.08947,-0.01278 0.1406,-0.02556c0.26842,-0.07669 0.4218,-0.35789 0.34511,-0.6263c-0.01278,-0.03835 -0.02556,-0.06391 -0.03835,-0.08947c-0.12782,-0.37067 -0.88194,-0.52405 -1.21426,-0.52405c-0.94585,0 -2.08342,0.54961 -2.518,1.53381v-1.4699l-1.22704,0.17894c0.33232,0 0.48571,0.30676 0.48571,0.6263v4.63976c0,0.61352 -0.35789,0.94585 -0.79247,0.94585z" data-paper-data="{&quot;glyphName&quot;:&quot;r&quot;,&quot;glyphIndex&quot;:5,&quot;word&quot;:1}"/>
        <path d="M254.21794,269.49184c0,-1.6105 -1.34208,-2.50522 -2.69694,-2.50522c-1.84057,0 -2.93979,1.53381 -2.92701,3.31046c0.03835,2.26236 1.55937,3.37437 3.09317,3.37437c0.88194,0 1.76388,-0.35789 2.36462,-1.08645c0.07669,-0.08947 0.03835,-0.11504 0,-0.11504c-0.02556,0 -0.03835,0 -0.05113,0.01278c-0.57518,0.63909 -1.30373,0.95863 -2.01951,0.95863c-1.3293,0 -2.58191,-1.09923 -2.59469,-3.15708c0,-0.26842 0.02556,-0.53683 0.07669,-0.79247zM251.81498,267.24225c0.7669,0 1.62328,0.37067 2.05786,1.25261c0.20451,0.43458 0.15338,0.88194 -0.46014,0.88194h-3.92399c0.26842,-1.13757 1.08645,-2.13455 2.32627,-2.13455z" data-paper-data="{&quot;glyphName&quot;:&quot;e&quot;,&quot;glyphIndex&quot;:6,&quot;lastGlyphOfWord&quot;:true,&quot;word&quot;:1}"/>
        <path d="M265.44829,264.53253c0.43458,0 0.80525,0.33232 0.80525,0.94585v7.10663c0,0.60074 -0.37067,0.93307 -0.80525,0.93307h2.41574c-0.43458,0 -0.79247,-0.33232 -0.79247,-0.93307l-0.01278,0.16616v-2.2368h3.33603c4.07737,0 4.07737,-5.98184 0,-5.98184zM267.59562,264.68591h2.17289c3.73226,0 3.73226,5.67508 0,5.67508h-2.70972v-4.90818c0,-0.43458 0.23007,-0.70299 0.53683,-0.7669z" data-paper-data="{&quot;glyphName&quot;:&quot;P&quot;,&quot;glyphIndex&quot;:7,&quot;firstGlyphOfWord&quot;:true,&quot;word&quot;:2}"/>
        <path d="M282.18898,272.26547c-0.11504,0.60074 -1.30373,1.1887 -2.01951,1.26539c-0.07669,0.01278 -0.15338,0.01278 -0.21729,0.01278c-1.63606,0 -1.84057,-2.17289 -0.75412,-3.05483c0.84359,-0.67743 2.45409,-0.49849 2.99092,-1.54659zM282.18898,273.05793c0,0.4218 0.2812,0.57518 0.6263,0.57518c0.30676,0 0.66465,-0.12782 0.89472,-0.29398c-0.17894,0.06391 -0.31954,0.08947 -0.43458,0.08947c-0.30676,0 -0.35789,-0.24285 -0.35789,-0.77968v-3.80895c-0.05113,-1.16314 -1.21426,-1.78944 -2.41574,-1.78944c-1.03532,0 -2.0962,0.46014 -2.47965,1.45712c-0.02556,0.06391 -0.02556,0.12782 -0.02556,0.19173c0,0.26842 0.21729,0.49849 0.49849,0.49849c0.26842,0 0.49849,-0.23007 0.49849,-0.49849c0,-0.2812 -0.23007,-0.49849 -0.49849,-0.49849c-0.07669,0 -0.1406,0.01278 -0.21729,0.05113c0.31954,-0.63909 1.27817,-1.08645 2.16011,-1.08645c0.85637,0 1.64884,0.40901 1.73831,1.48268c-0.16616,1.21426 -2.62025,1.22704 -3.48941,1.72553c-1.53381,0.86916 -1.23983,2.96536 0.51127,3.27212c0.15338,0.02556 0.31954,0.03835 0.48571,0.03835c0.92028,0 2.04507,-0.39623 2.50522,-1.1887z" data-paper-data="{&quot;glyphName&quot;:&quot;a&quot;,&quot;glyphIndex&quot;:8,&quot;word&quot;:2}"/>
        <path d="M287.42166,273.55642h2.33905c-0.43458,0 -0.80525,-0.33232 -0.80525,-0.94585v-3.68113c0,-0.01278 0.01278,-0.02556 0.01278,-0.03835c0.24285,-0.89472 1.41877,-1.6744 2.46687,-1.6744c0.26842,0 0.52405,0.03835 0.75412,0.15338c-0.02556,0 -0.05113,0 -0.07669,0.01278c-0.26842,0.07669 -0.4218,0.34511 -0.34511,0.61352c0.06391,0.21729 0.25563,0.37067 0.47292,0.37067c0.05113,0 0.08947,-0.01278 0.1406,-0.02556c0.26842,-0.07669 0.4218,-0.35789 0.34511,-0.6263c-0.01278,-0.03835 -0.02556,-0.06391 -0.03835,-0.08947c-0.12782,-0.37067 -0.88194,-0.52405 -1.21426,-0.52405c-0.94585,0 -2.08342,0.54961 -2.518,1.53381v-1.4699l-1.22704,0.17894c0.33232,0 0.48571,0.30676 0.48571,0.6263v4.63976c0,0.61352 -0.35789,0.94585 -0.79247,0.94585z" data-paper-data="{&quot;glyphName&quot;:&quot;r&quot;,&quot;glyphIndex&quot;:9,&quot;lastGlyphOfWord&quot;:true,&quot;word&quot;:2}"/>
        <path d="M304.50867,265.08214v7.51565c0,0.60074 -0.37067,0.93307 -0.80525,0.93307h1.84057c-0.43458,0 -0.80525,-0.33232 -0.80525,-0.93307v-7.26001l7.18332,8.44871l0.01278,-8.30811v0.01278c0,-0.61352 0.37067,-0.94585 0.80525,-0.94585h-1.84057c0.43458,0 0.80525,0.33232 0.80525,0.94585v6.55702l-6.45477,-7.50287h-1.9556c0.47292,0 0.84359,0.11504 1.21426,0.53683z" data-paper-data="{&quot;glyphName&quot;:&quot;N&quot;,&quot;glyphIndex&quot;:10,&quot;firstGlyphOfWord&quot;:true,&quot;word&quot;:3}"/>
        <path d="M321.38339,272.26547c-0.11504,0.60074 -1.30373,1.1887 -2.01951,1.26539c-0.07669,0.01278 -0.15338,0.01278 -0.21729,0.01278c-1.63606,0 -1.84057,-2.17289 -0.75412,-3.05483c0.84359,-0.67743 2.45409,-0.49849 2.99092,-1.54659zM321.38339,273.05793c0,0.4218 0.2812,0.57518 0.6263,0.57518c0.30676,0 0.66465,-0.12782 0.89472,-0.29398c-0.17894,0.06391 -0.31954,0.08947 -0.43458,0.08947c-0.30676,0 -0.35789,-0.24285 -0.35789,-0.77968v-3.80895c-0.05113,-1.16314 -1.21426,-1.78944 -2.41574,-1.78944c-1.03532,0 -2.0962,0.46014 -2.47965,1.45712c-0.02556,0.06391 -0.02556,0.12782 -0.02556,0.19173c0,0.26842 0.21729,0.49849 0.49849,0.49849c0.26842,0 0.49849,-0.23007 0.49849,-0.49849c0,-0.2812 -0.23007,-0.49849 -0.49849,-0.49849c-0.07669,0 -0.1406,0.01278 -0.21729,0.05113c0.31954,-0.63909 1.27817,-1.08645 2.16011,-1.08645c0.85637,0 1.64884,0.40901 1.73831,1.48268c-0.16616,1.21426 -2.62025,1.22704 -3.48941,1.72553c-1.53381,0.86916 -1.23983,2.96536 0.51127,3.27212c0.15338,0.02556 0.31954,0.03835 0.48571,0.03835c0.92028,0 2.04507,-0.39623 2.50522,-1.1887z" data-paper-data="{&quot;glyphName&quot;:&quot;a&quot;,&quot;glyphIndex&quot;:11,&quot;word&quot;:3}"/>
        <path d="M327.12902,267.19113v4.69089c0,1.06088 0.52405,1.73831 1.58493,1.73831c0.38345,0 0.84359,-0.11504 1.41877,-0.43458l-0.05113,-0.06391c-0.35789,0.21729 -0.74134,0.34511 -1.08645,0.34511c-0.29398,0 -0.5624,-0.08947 -0.75412,-0.25563c-0.24285,-0.19173 -0.38345,-0.5624 -0.37067,-1.12479v-4.8954h1.71275v-0.08947h-1.71275v-2.08342c0,-0.02556 -0.01278,-0.03835 -0.02556,-0.03835c-0.01278,0 -0.02556,0.01278 -0.02556,0.03835c-0.06391,1.6105 -0.52405,2.07064 -1.59771,2.08342v0.08947z" data-paper-data="{&quot;glyphName&quot;:&quot;t&quot;,&quot;glyphIndex&quot;:12,&quot;word&quot;:3}"/>
        <path d="M333.82731,267.35729c0.33232,0 0.49849,0.30676 0.49849,0.6263v4.00068c0,1.15035 1.09923,1.73831 2.28793,1.73831c0.81803,0 1.68719,-0.29398 2.22402,-0.86916v0.20451c0,0.4218 0.2812,0.57518 0.6263,0.57518c0.30676,0 0.66465,-0.12782 0.89472,-0.29398c-0.17894,0.06391 -0.31954,0.08947 -0.43458,0.08947c-0.30676,0 -0.35789,-0.24285 -0.35789,-0.77968v-5.47057l-1.22704,0.17894c0.34511,0 0.49849,0.30676 0.49849,0.6263v4.57585c-0.24285,0.71578 -1.41877,1.06088 -2.08342,1.06088c-0.89472,0 -1.72553,-0.44736 -1.69997,-1.63606v-4.80592z" data-paper-data="{&quot;glyphName&quot;:&quot;u&quot;,&quot;glyphIndex&quot;:13,&quot;word&quot;:3}"/>
        <path d="M344.49011,273.55642h2.33905c-0.43458,0 -0.80525,-0.33232 -0.80525,-0.94585v-3.68113c0,-0.01278 0.01278,-0.02556 0.01278,-0.03835c0.24285,-0.89472 1.41877,-1.6744 2.46687,-1.6744c0.26842,0 0.52405,0.03835 0.75412,0.15338c-0.02556,0 -0.05113,0 -0.07669,0.01278c-0.26842,0.07669 -0.4218,0.34511 -0.34511,0.61352c0.06391,0.21729 0.25563,0.37067 0.47292,0.37067c0.05113,0 0.08947,-0.01278 0.1406,-0.02556c0.26842,-0.07669 0.4218,-0.35789 0.34511,-0.6263c-0.01278,-0.03835 -0.02556,-0.06391 -0.03835,-0.08947c-0.12782,-0.37067 -0.88194,-0.52405 -1.21426,-0.52405c-0.94585,0 -2.08342,0.54961 -2.518,1.53381v-1.4699l-1.22704,0.17894c0.33232,0 0.48571,0.30676 0.48571,0.6263v4.63976c0,0.61352 -0.35789,0.94585 -0.79247,0.94585z" data-paper-data="{&quot;glyphName&quot;:&quot;r&quot;,&quot;glyphIndex&quot;:14,&quot;word&quot;:3}"/>
        <path d="M359.26308,269.49184c0,-1.6105 -1.34208,-2.50522 -2.69694,-2.50522c-1.84057,0 -2.93979,1.53381 -2.92701,3.31046c0.03835,2.26236 1.55937,3.37437 3.09317,3.37437c0.88194,0 1.76388,-0.35789 2.36462,-1.08645c0.07669,-0.08947 0.03835,-0.11504 0,-0.11504c-0.02556,0 -0.03835,0 -0.05113,0.01278c-0.57518,0.63909 -1.30373,0.95863 -2.01951,0.95863c-1.3293,0 -2.58191,-1.09923 -2.59469,-3.15708c0,-0.26842 0.02556,-0.53683 0.07669,-0.79247zM356.86012,267.24225c0.7669,0 1.62328,0.37067 2.05786,1.25261c0.20451,0.43458 0.15338,0.88194 -0.46014,0.88194h-3.92399c0.26842,-1.13757 1.08645,-2.13455 2.32627,-2.13455z" data-paper-data="{&quot;glyphName&quot;:&quot;e&quot;,&quot;glyphIndex&quot;:15,&quot;lastGlyphOfWord&quot;:true,&quot;word&quot;:3}"/>
      </g>
      <g data-paper-data="{&quot;isPrimaryText&quot;:true}">
        <path d="M94.56796,198.89992c0.31614,-0.82195 -1.26454,-1.391 -1.58068,-1.45422c-3.22458,-0.12645 -5.56398,7.20789 -5.24785,7.4608c-4.80526,8.4092 -11.38087,19.91653 -16.62872,30.98127c-2.27617,4.10976 -4.23621,8.02984 -6.00657,11.38087c-0.75872,1.391 2.84522,3.28781 3.79362,0.6955c2.27617,-6.57562 4.86849,-12.51896 7.7137,-18.2094c5.88012,-9.61052 13.40414,-19.22103 23.64693,-24.46888c4.80526,-2.46586 13.90996,-4.99494 18.84167,-2.27617c1.96004,1.07486 2.84522,2.97167 2.3394,5.18462c-1.58068,6.44916 -13.5306,11.63378 -22.31916,14.79514c-2.27617,0.31614 -4.48912,0.94841 -6.32271,1.96004c-2.78199,1.45422 1.83359,2.14972 2.40263,1.89681c1.13809,-0.37936 1.58068,-0.56904 3.09813,-1.07486c1.01163,-0.37936 2.08649,-0.82195 3.28781,-1.20131c0.44259,-0.06323 0.94841,0 1.45422,0c17.00808,1.01163 11.00151,20.80171 -7.4608,23.20434c-7.20789,0.94841 -13.7835,0.31614 -18.08295,-2.40263c0.18968,-0.44259 0.06323,-0.94841 -0.25291,-1.32777c-0.56904,-0.56904 -1.96004,-0.82195 -2.71876,-0.82195c-0.94841,0 -1.70713,1.26454 -1.13809,1.96004c3.16135,3.85685 13.21446,5.75366 22.6353,4.48912c22.8882,-2.97167 24.65856,-24.46888 9.42084,-26.68183c8.53566,-3.47749 17.83004,-8.47243 18.58876,-15.23773c0.12645,-1.20131 -0.06323,-2.40263 -0.56904,-3.60394c-3.60394,-8.02984 -18.08295,-3.47749 -24.08952,-0.37936c-6.00657,3.09813 -11.06474,7.58725 -15.42741,12.70864c3.35104,-5.69044 6.95498,-11.4441 10.62215,-17.57713z" data-paper-data="{&quot;glyphName&quot;:&quot;B&quot;,&quot;glyphIndex&quot;:0,&quot;firstGlyphOfWord&quot;:true,&quot;word&quot;:1}"/>
        <path d="M130.29127,228.55342c-0.18968,0.31614 -0.50582,1.01163 -0.56904,1.20131c-0.44259,-1.07486 -1.89681,-1.89681 -3.35104,-1.96004c-6.51239,-0.25291 -10.81183,8.09307 -8.91502,11.31765c1.96004,3.41426 7.52402,-1.07486 9.42084,-2.71876c-1.07486,2.78199 -0.82195,4.99494 1.20131,5.18462c4.6788,0.44259 10.30601,-7.39757 12.51896,-10.4957c0.12645,-0.18968 0.50582,-0.75872 0.50582,-0.88518c0,-0.63227 -1.58068,-0.63227 -1.89681,-0.12645c-1.70713,2.84522 -6.32271,8.78856 -9.54729,9.29438c-0.63227,0.12645 -1.07486,-0.12645 -0.75872,-1.13809c0.63227,-2.27617 3.09813,-7.65048 3.92008,-9.35761c0.50582,-1.07486 -2.21295,-1.01163 -2.52908,-0.31614zM128.71059,231.90446c-0.88518,2.08649 -5.81689,5.62721 -7.77693,6.25948c-2.27617,0.6955 0.12645,-8.09307 4.61558,-8.53566c3.28781,-0.37936 3.16135,1.96004 3.16135,2.27617z" data-paper-data="{&quot;glyphName&quot;:&quot;a&quot;,&quot;glyphIndex&quot;:1,&quot;word&quot;:1}"/>
        <path d="M152.35752,230.32378c-2.71876,1.13809 -5.50076,2.59231 -8.66211,4.36267c-1.70713,-2.71876 -3.85685,-4.04653 1.6439,-6.13303c1.13809,-0.37936 -0.31614,-1.89681 -1.51745,-1.51745c-8.02984,2.71876 -4.04653,6.63884 -2.14972,8.91502c-1.51745,0.94841 -7.33434,4.6788 -4.04653,5.56398c2.21295,0.63227 7.33434,-1.26454 6.57562,-5.31107c3.09813,-1.83359 6.38594,-3.60394 9.8002,-5.12139c1.13809,-0.50582 -0.50582,-1.26454 -1.6439,-0.75872zM142.11473,237.40522c0.12645,1.51745 -1.45422,2.3394 -2.71876,2.52908c-1.51745,0.25291 2.59231,-2.46586 2.71876,-2.52908z" data-paper-data="{&quot;glyphName&quot;:&quot;s&quot;,&quot;glyphIndex&quot;:2,&quot;word&quot;:1}"/>
        <path d="M164.37066,207.62526c-1.58068,2.78199 -3.22458,5.56398 -4.80526,8.4092l-0.12645,0.18968c-5.12139,0.18968 -10.62215,0.56904 -15.61709,0.94841c-0.50582,0.06323 -0.82195,0.63227 -0.88518,1.01163c-0.12645,1.32777 2.71876,1.01163 3.7304,1.07486c0.37936,0 0.6955,-0.25291 0.82195,-0.63227c3.60394,-0.25291 7.39757,-0.50582 10.93829,-0.63227l-0.06323,0.18968c-3.79362,6.82852 -7.4608,13.84673 -10.24279,20.92816c-1.32777,3.28781 -0.50582,5.94335 3.47749,5.31107c1.26454,-0.25291 2.71876,-0.94841 4.29944,-1.89681c4.55235,-2.84522 10.43247,-8.34597 13.40414,-12.1396c0.56904,-0.63227 -1.6439,-0.6955 -2.02327,-0.25291c-0.50582,0.63227 -1.13809,1.32777 -1.77036,2.02327c-3.0349,3.22458 -7.08143,6.7653 -10.4957,8.85179c-1.45422,0.88518 -2.71876,1.51745 -3.79362,1.77036c-1.51745,0.31614 -1.26454,-1.6439 -0.63227,-3.16135c1.70713,-4.29944 3.79362,-8.66211 6.00657,-12.89832c1.58068,-2.97167 3.28781,-5.88012 5.12139,-8.85179c4.17299,-0.12645 8.02984,-0.18968 11.00151,0c4.61558,0.18968 4.17299,1.26454 5.3743,1.51745c0.44259,0.12645 0.94841,-0.18968 1.20131,-0.56904c0.06323,-0.18968 0.12645,-0.31614 0.12645,-0.50582c0.12645,-0.88518 -0.6955,-1.45422 -2.21295,-1.77036c-1.07486,-0.18968 -2.59231,-0.37936 -4.4259,-0.44259c-2.71876,-0.12645 -6.19625,-0.12645 -9.98988,0c1.51745,-2.46586 2.97167,-4.93171 4.4259,-7.33434c0.31614,-0.63227 0.82195,-1.6439 0.18968,-1.96004c-0.56904,-0.37936 -2.65554,0.25291 -3.0349,0.82195z" data-paper-data="{&quot;glyphName&quot;:&quot;t&quot;,&quot;glyphIndex&quot;:3,&quot;word&quot;:1}"/>
        <path d="M169.99787,224.25398c-0.82195,0 -1.58068,0.82195 -1.58068,1.70713c0,0.82195 0.6955,1.26454 1.45422,1.26454c0.82195,0 1.51745,-0.63227 1.51745,-1.51745c0,-0.82195 -0.63227,-1.45422 -1.391,-1.45422zM170.44046,228.86956c0.56904,-1.26454 -2.21295,-1.13809 -2.59231,-0.12645l-3.47749,8.28275c-1.13809,2.65554 -0.12645,5.3743 3.0349,4.80526c4.6788,-0.82195 12.1396,-8.91502 13.97319,-10.93829c0.82195,-0.82195 -1.01163,-1.26454 -1.58068,-0.82195c-3.16135,3.41426 -7.27111,7.7137 -10.87506,9.35761c-2.65554,1.20131 -2.84522,0 -1.89681,-2.40263z" data-paper-data="{&quot;glyphName&quot;:&quot;i&quot;,&quot;glyphIndex&quot;:4,&quot;word&quot;:1}"/>
        <path d="M205.53149,208.25753c0.94841,-1.70713 -2.46586,-1.20131 -3.28781,-0.06323l-12.26605,22.25593c-0.44259,-1.70713 -2.65554,-2.97167 -4.74203,-2.84522c-5.12139,0.18968 -11.31765,7.65048 -10.55892,11.94992c0.44259,2.90845 3.79362,4.10976 12.26605,-3.09813c-2.52908,5.18462 -4.6788,10.05311 -6.38594,14.60546c-0.44259,1.32777 2.40263,1.45422 2.90845,-0.18968c4.55235,-14.09964 14.66868,-29.6535 22.06625,-42.61505zM189.02922,232.28382c-2.21295,2.78199 -9.04147,7.7137 -11.12797,6.82852c-1.6439,-0.6955 2.84522,-8.02984 6.19625,-9.42084c2.27617,-0.94841 4.6788,0.18968 4.93171,2.59231z" data-paper-data="{&quot;glyphName&quot;:&quot;d&quot;,&quot;glyphIndex&quot;:5,&quot;word&quot;:1}"/>
        <path d="M209.45157,230.07087c-4.23621,3.28781 -7.20789,5.56398 -11.31765,7.4608c-3.79362,1.70713 -3.85685,-0.56904 -2.78199,-3.22458c-0.18968,0.6955 0.44259,1.20131 1.13809,1.07486c3.92008,-0.56904 7.90339,-6.25948 6.13303,-7.7137c-3.41426,-2.65554 -10.62215,4.48912 -9.86342,9.67374c1.01163,7.33434 15.23773,-3.92008 17.76681,-5.94335c0.44259,-0.31614 0.50582,-1.07486 0.25291,-1.391c-0.25291,-0.37936 -0.82195,-0.31614 -1.32777,0.06323zM200.15719,229.05924c0.37936,-0.12645 1.391,-0.25291 1.20131,0.37936c-0.82195,2.14972 -2.52908,3.09813 -3.41426,3.47749c-1.58068,0.56904 -2.02327,0.18968 -2.3394,0.88518c1.07486,-2.21295 2.52908,-4.04653 4.55235,-4.74203z" data-paper-data="{&quot;glyphName&quot;:&quot;e&quot;,&quot;glyphIndex&quot;:6,&quot;lastGlyphOfWord&quot;:true,&quot;word&quot;:1}"/>
        <path d="M259.90678,206.80331c-0.50582,-0.31614 -1.07486,-0.25291 -1.51745,0.12645c-0.12645,0.12645 -0.31614,0.31614 -0.63227,0.50582c-0.94841,0.82195 -2.65554,2.21295 -3.54072,3.54072c-0.37936,0.56904 -0.18968,1.32777 0.37936,1.70713c0.18968,0.12645 0.37936,0.18968 0.63227,0.18968c-2.65554,4.6788 -5.62721,9.98988 -8.4092,15.36418c-0.82195,1.58068 -1.6439,3.16135 -2.46586,4.6788c0.25291,-1.07486 0.44259,-2.08649 0.56904,-3.09813c0.37936,-2.59231 0.44259,-4.86849 0,-6.57562c-0.56904,-1.96004 -1.70713,-3.22458 -3.7304,-3.35104c-0.56904,-0.06323 -1.20131,0 -1.89681,0.18968c2.21295,-4.93171 6.63884,-9.92665 12.64542,-13.21446c5.56398,-3.0349 12.45574,-4.55235 20.23267,-3.09813c5.75366,1.07486 8.91502,4.29944 10.11633,8.47243c0.75872,2.71876 0.75872,5.88012 0.06323,9.1047c-0.6955,3.35104 -2.02327,6.7653 -3.92008,10.05311c-3.28781,5.62721 -8.21952,10.68538 -13.84673,13.34091c-7.14466,3.35104 -14.35255,3.09813 -19.28426,-2.65554c-0.88518,-1.01163 -2.71876,0.88518 -1.6439,2.08649c5.50076,5.94335 14.22609,5.94335 20.48557,3.47749c6.7653,-2.71876 12.58219,-8.47243 16.43904,-15.04805c2.02327,-3.41426 3.47749,-7.14466 4.23621,-10.7486c0.75872,-3.66717 0.75872,-7.20789 -0.12645,-10.30601c-1.51745,-5.05817 -5.24785,-8.91502 -12.01315,-10.17956c-8.4092,-1.6439 -15.93322,0 -21.9398,3.28781c-7.39757,4.04653 -12.58219,10.62215 -14.54223,16.69195c-0.25291,0.63227 0.50582,1.07486 1.13809,1.26454c0.6955,0 1.391,-1.13809 3.79362,-1.01163c1.07486,0.06323 1.77036,0.88518 2.08649,2.08649c0.37936,1.45422 0.31614,3.54072 0,5.88012c-0.56904,3.85685 -1.83359,8.34597 -3.16135,12.32928c-1.391,3.0349 -2.65554,6.00657 -3.66717,8.72534c-0.25291,0.63227 0.06323,1.32777 0.6955,1.58068c0.63227,0.25291 1.391,-0.06323 1.6439,-0.6955c2.46586,-6.63884 6.25948,-14.479 10.24279,-22.12948c4.04653,-7.65048 8.28275,-15.04805 11.57056,-20.80171c0.31614,-0.63227 0.12645,-1.391 -0.44259,-1.70713c-0.06323,-0.06323 -0.12645,-0.06323 -0.18968,-0.06323z" data-paper-data="{&quot;glyphName&quot;:&quot;D&quot;,&quot;glyphIndex&quot;:7,&quot;firstGlyphOfWord&quot;:true,&quot;word&quot;:2}"/>
        <path d="M299.80307,230.07087c-4.23621,3.28781 -7.20789,5.56398 -11.31765,7.4608c-3.79362,1.70713 -3.85685,-0.56904 -2.78199,-3.22458c-0.18968,0.6955 0.44259,1.20131 1.13809,1.07486c3.92008,-0.56904 7.90339,-6.25948 6.13303,-7.7137c-3.41426,-2.65554 -10.62215,4.48912 -9.86342,9.67374c1.01163,7.33434 15.23773,-3.92008 17.76681,-5.94335c0.44259,-0.31614 0.50582,-1.07486 0.25291,-1.391c-0.25291,-0.37936 -0.82195,-0.31614 -1.32777,0.06323zM290.50869,229.05924c0.37936,-0.12645 1.391,-0.25291 1.20131,0.37936c-0.82195,2.14972 -2.52908,3.09813 -3.41426,3.47749c-1.58068,0.56904 -2.02327,0.18968 -2.3394,0.88518c1.07486,-2.21295 2.52908,-4.04653 4.55235,-4.74203z" data-paper-data="{&quot;glyphName&quot;:&quot;e&quot;,&quot;glyphIndex&quot;:8,&quot;word&quot;:2}"/>
        <path d="M312.9543,230.32378c-2.71876,1.13809 -5.50076,2.59231 -8.66211,4.36267c-1.70713,-2.71876 -3.85685,-4.04653 1.6439,-6.13303c1.13809,-0.37936 -0.31614,-1.89681 -1.51745,-1.51745c-8.02984,2.71876 -4.04653,6.63884 -2.14972,8.91502c-1.51745,0.94841 -7.33434,4.6788 -4.04653,5.56398c2.21295,0.63227 7.33434,-1.26454 6.57562,-5.31107c3.09813,-1.83359 6.38594,-3.60394 9.8002,-5.12139c1.13809,-0.50582 -0.50582,-1.26454 -1.6439,-0.75872zM302.71152,237.40522c0.12645,1.51745 -1.45422,2.3394 -2.71876,2.52908c-1.51745,0.25291 2.59231,-2.46586 2.71876,-2.52908z" data-paper-data="{&quot;glyphName&quot;:&quot;s&quot;,&quot;glyphIndex&quot;:9,&quot;lastGlyphOfWord&quot;:true,&quot;word&quot;:2}"/>
        <path d="M367.45605,200.41737c-0.56904,-0.31614 -2.27617,0.12645 -2.65554,0.75872c-0.37936,0.63227 -1.391,1.96004 -2.52908,3.41426c-1.51745,2.02327 -3.22458,4.17299 -3.7304,5.31107c-0.25291,0.56904 0,1.26454 0.50582,1.58068c-1.89681,3.41426 -3.98331,7.08143 -6.0698,11.00151c0.12645,-3.09813 -0.12645,-5.88012 -0.82195,-8.21952c-0.94841,-3.22458 -2.52908,-5.69044 -4.80526,-7.27111c-0.82195,-0.56904 -1.70713,-1.07486 -2.71876,-1.391c5.50076,-3.28781 12.1396,-5.56398 18.52553,-6.70207c6.70207,-1.20131 22.25593,-2.3394 24.15275,6.89175c0.37936,2.08649 0,4.4259 -1.01163,6.89175c-1.01163,2.52908 -2.78199,5.05817 -5.05817,7.4608c-4.4259,4.61558 -10.87506,8.4092 -18.2094,9.48406c-2.52908,0.37936 -5.12139,0.44259 -7.77693,0.12645c-0.6955,-0.12645 -1.96004,0.75872 -2.02327,1.45422c-0.25291,1.89681 9.04147,1.07486 10.17956,0.88518c7.90339,-1.13809 14.85836,-5.24785 19.66362,-10.24279c2.46586,-2.59231 4.36267,-5.43753 5.50076,-8.21952c1.20131,-2.90845 1.6439,-5.75366 1.13809,-8.34597c-2.21295,-10.93829 -18.77844,-9.54729 -26.87151,-8.09307c-7.27111,1.32777 -14.85836,4.04653 -20.92816,8.02984c-0.18968,0.12645 -0.37936,0.37936 -0.37936,0.63227c-0.06323,0.50582 0.25291,0.88518 0.75872,0.94841c1.51745,0.25291 2.90845,0.75872 4.04653,1.58068c1.96004,1.391 3.35104,3.54072 4.10976,6.32271c0.82195,2.84522 1.01163,6.38594 0.50582,10.30601c-0.06323,0.50582 -0.12645,1.07486 -0.25291,1.58068c-4.29944,8.09307 -8.47243,16.62872 -11.25442,24.15275c-0.25291,0.63227 0.12645,1.32777 0.75872,1.58068c0.63227,0.25291 1.32777,-0.12645 1.58068,-0.75872c0.12645,-0.37936 0.31614,-0.82195 0.50582,-1.26454c4.86849,-7.14466 7.96661,-14.16287 9.48406,-20.42235c4.10976,-7.84016 8.4092,-15.36418 11.82346,-21.30753c1.45422,-2.52908 2.71876,-4.80526 3.85685,-6.89175c0.37936,-0.56904 0.56904,-0.94841 0,-1.26454z" data-paper-data="{&quot;glyphName&quot;:&quot;P&quot;,&quot;glyphIndex&quot;:10,&quot;firstGlyphOfWord&quot;:true,&quot;word&quot;:3}"/>
        <path d="M381.74537,249.16545c1.89681,-0.37936 4.61558,-3.41426 5.88012,-4.86849c3.92008,-4.55235 8.21952,-11.06474 9.48406,-13.40414c0.25291,-0.44259 0.50582,-0.88518 0.18968,-1.07486c-0.44259,-0.25291 -1.45422,-0.18968 -1.70713,0.25291c-1.20131,2.27617 -5.43753,8.59888 -9.29438,13.08801c-0.75872,0.88518 -3.28781,3.85685 -4.4259,3.92008c-0.37936,0 -0.63227,-0.31614 -0.50582,-1.26454c0.50582,-4.10976 6.7653,-6.7653 6.38594,-11.82346c-0.12645,-2.84522 -4.10976,-3.47749 -0.25291,-4.80526c1.07486,-0.31614 -0.12645,-3.22458 -1.45422,-2.65554c-7.65048,3.0349 -0.94841,6.95498 -0.94841,8.53566c0,2.78199 -6.89175,6.44916 -6.25948,11.88669c0.18968,1.89681 1.51745,2.52908 2.90845,2.21295z" data-paper-data="{&quot;glyphName&quot;:&quot;r&quot;,&quot;glyphIndex&quot;:11,&quot;word&quot;:3}"/>
        <path d="M409.3756,230.07087c-4.23621,3.28781 -7.20789,5.56398 -11.31765,7.4608c-3.79362,1.70713 -3.85685,-0.56904 -2.78199,-3.22458c-0.18968,0.6955 0.44259,1.20131 1.13809,1.07486c3.92008,-0.56904 7.90339,-6.25948 6.13303,-7.7137c-3.41426,-2.65554 -10.62215,4.48912 -9.86342,9.67374c1.01163,7.33434 15.23773,-3.92008 17.76681,-5.94335c0.44259,-0.31614 0.50582,-1.07486 0.25291,-1.391c-0.25291,-0.37936 -0.82195,-0.31614 -1.32777,0.06323zM400.08122,229.05924c0.37936,-0.12645 1.391,-0.25291 1.20131,0.37936c-0.82195,2.14972 -2.52908,3.09813 -3.41426,3.47749c-1.58068,0.56904 -2.02327,0.18968 -2.3394,0.88518c1.07486,-2.21295 2.52908,-4.04653 4.55235,-4.74203zM402.61031,222.98944c0.18968,-0.56904 -1.391,-2.46586 -1.89681,-1.89681l-1.01163,3.7304c-0.12645,0.56904 1.45422,1.45422 1.58068,1.13809z" data-paper-data="{&quot;glyphName&quot;:&quot;é&quot;,&quot;glyphIndex&quot;:12,&quot;word&quot;:3}"/>
        <path d="M407.79493,242.02079c1.32777,-1.70713 8.15629,-9.61052 10.87506,-10.87506c-0.82195,2.71876 -6.32271,8.66211 -1.32777,9.86342c3.28781,0.82195 9.98988,-7.7137 11.82346,-10.36924c0.50582,-0.75872 -1.13809,-1.391 -1.77036,-0.56904c-1.70713,2.3394 -3.85685,4.93171 -5.88012,6.82852c-1.70713,1.58068 -4.36267,3.47749 -3.7304,1.32777c0.88518,-3.28781 6.51239,-10.05311 2.46586,-10.11633c-2.65554,-0.06323 -9.73697,7.84016 -11.63378,10.11633l3.54072,-8.21952c0.6955,-1.45422 -2.21295,-1.13809 -2.59231,-0.31614l-4.55235,10.87506c-0.63227,1.77036 2.21295,2.14972 2.78199,1.45422z" data-paper-data="{&quot;glyphName&quot;:&quot;n&quot;,&quot;glyphIndex&quot;:13,&quot;word&quot;:3}"/>
        <path d="M444.27695,231.27219c0.75872,-0.31614 -0.63227,-1.58068 -1.45422,-1.20131c-2.27617,0.94841 -3.98331,1.45422 -5.24785,1.6439c0.50582,-1.83359 -0.94841,-3.0349 -2.46586,-3.47749c-1.45422,-3.47749 -8.09307,-0.44259 -10.05311,6.51239c-2.08649,7.14466 6.51239,6.57562 11.57056,-1.20131c1.77036,-0.06323 4.23621,-0.63227 7.65048,-2.27617zM434.66644,233.35868c-0.56904,0.75872 -1.20131,1.51745 -1.89681,2.14972c-1.20131,1.20131 -3.85685,2.78199 -4.99494,1.96004c-1.26454,-0.88518 1.01163,-6.51239 3.7304,-8.02984c-0.12645,0.44259 -0.12645,0.94841 0.50582,1.70713c0.6955,1.01163 0.88518,1.70713 2.65554,2.21295zM434.53998,231.39864c0.25291,-0.50582 0.37936,-0.94841 0.50582,-1.32777c0.63227,0.25291 1.07486,0.75872 0.63227,1.70713c-0.44259,-0.12645 -0.82195,-0.25291 -1.13809,-0.37936zM433.21221,230.00765l0.06323,-0.06323z" data-paper-data="{&quot;glyphName&quot;:&quot;o&quot;,&quot;glyphIndex&quot;:14,&quot;word&quot;:3}"/>
        <path d="M442.88596,229.62828l-3.54072,8.53566c-0.25291,0.63227 0.12645,1.32777 0.75872,1.58068c1.13809,0.44259 1.51745,-0.6955 2.02327,-1.51745c2.71876,-4.17299 6.70207,-10.36924 10.62215,-10.30601c3.0349,0 -1.83359,10.43247 -2.59231,13.08801c-0.12645,0.56904 1.89681,0.75872 2.46586,-0.06323c1.77036,-2.71876 4.93171,-8.09307 7.4608,-8.4092c1.70713,-0.25291 -3.41426,7.20789 1.45422,6.89175c3.0349,-0.18968 8.66211,-6.95498 10.11633,-8.85179c0.50582,-0.6955 -1.13809,-1.32777 -1.83359,-0.50582c-1.6439,2.02327 -5.75366,7.01821 -7.77693,7.14466c-0.63227,0 1.01163,-3.28781 1.07486,-4.93171c0.06323,-0.94841 -0.50582,-1.77036 -1.13809,-1.96004c-1.45422,-0.37936 -4.36267,0.88518 -7.01821,4.23621c0.6955,-2.27617 2.08649,-7.01821 -0.94841,-8.21952c-2.08649,-0.82195 -5.81689,1.01163 -9.35761,5.31107l0.75872,-1.51745c0.63227,-1.51745 -2.21295,-1.26454 -2.52908,-0.50582z" data-paper-data="{&quot;glyphName&quot;:&quot;m&quot;,&quot;glyphIndex&quot;:15,&quot;word&quot;:3}"/>
        <path d="M482.97193,230.32378c-2.71876,1.13809 -5.50076,2.59231 -8.66211,4.36267c-1.70713,-2.71876 -3.85685,-4.04653 1.6439,-6.13303c1.13809,-0.37936 -0.31614,-1.89681 -1.51745,-1.51745c-8.02984,2.71876 -4.04653,6.63884 -2.14972,8.91502c-1.51745,0.94841 -7.33434,4.6788 -4.04653,5.56398c2.21295,0.63227 7.33434,-1.26454 6.57562,-5.31107c3.09813,-1.83359 6.38594,-3.60394 9.8002,-5.12139c1.13809,-0.50582 -0.50582,-1.26454 -1.6439,-0.75872zM472.72914,237.40522c0.12645,1.51745 -1.45422,2.3394 -2.71876,2.52908c-1.51745,0.25291 2.59231,-2.46586 2.71876,-2.52908z" data-paper-data="{&quot;glyphName&quot;:&quot;s&quot;,&quot;glyphIndex&quot;:16,&quot;lastGlyphOfWord&quot;:true,&quot;word&quot;:3}"/>
      </g>
    </g>
  </g>
</svg>