<svg xmlns="http://www.w3.org/2000/svg" version="1.1" xmlns:xlink="http://www.w3.org/1999/xlink" xmlns:svgjs="http://svgjs.dev/svgjs" viewBox="0 0 800 800"><defs><linearGradient x1="50%" y1="0%" x2="50%" y2="100%" id="ssspill-grad"><stop stop-color="hsl(105, 69%, 40%)" stop-opacity="1" offset="45%"></stop><stop stop-color="hsl(105, 69%, 60%)" stop-opacity="1" offset="100%"></stop></linearGradient><filter id="ssspot-filter" x="-20%" y="-20%" width="140%" height="140%" filterUnits="objectBoundingBox" primitiveUnits="userSpaceOnUse" color-interpolation-filters="sRGB">
	<feTurbulence type="turbulence" baseFrequency="0.022 0.218" numOctaves="2" seed="41" stitchTiles="stitch" x="0%" y="0%" width="100%" height="100%" result="turbulence"></feTurbulence>
	<feGaussianBlur stdDeviation="0 3" x="0%" y="0%" width="100%" height="100%" in="turbulence" edgeMode="duplicate" result="blur"></feGaussianBlur>
	<feDisplacementMap in="SourceGraphic" in2="blur" scale="32" xChannelSelector="R" yChannelSelector="B" x="0%" y="0%" width="100%" height="100%" result="displacementMap"></feDisplacementMap>
</filter></defs><rect width="100%" height="100%" fill="hsv(0, 0%, 100%)"></rect><g fill="url(#ssspill-grad)" filter="url(#ssspot-filter)"><circle r="8.23865251751704" cx="41.440624618070245" cy="693.8968806674656" opacity="0.475422882588983"></circle><circle r="5.40473850654167" cx="194.37499978217153" cy="384.26638349942743" opacity="0.1598150500088061"></circle><circle r="6.601200637305856" cx="160.82787531562798" cy="133.8567481590973" opacity="0.9448442973610537"></circle><circle r="4.777083591513474" cx="55.9206159425506" cy="214.29013905153272" opacity="0.7770789861410358"></circle><circle r="5.682636270606485" cx="628.6419571458836" cy="276.1077921250271" opacity="0.41858178890117825"></circle><circle r="10.614429793466076" cx="486.78861024138615" cy="587.5069024514763" opacity="0.9824717214235976"></circle><circle r="5.884507756298881" cx="547.513447071379" cy="599.7288332703076" opacity="0.6228645649886257"></circle><circle r="8.197749119486854" cx="175.86506558892165" cy="678.9730231267296" opacity="0.6249145965331371"></circle><circle r="4.9445791263883905" cx="730.5308026890232" cy="602.9354270983816" opacity="0.9094195333896263"></circle><circle r="5.4239197251747155" cx="472.39551561861174" cy="194.3824952074141" opacity="0.3269605780739264"></circle><circle r="10.576125810522385" cx="198.15426724168927" cy="237.05265355550225" opacity="0.33047128182103935"></circle><circle r="7.010696823295745" cx="73.75060641020055" cy="481.6461569365196" opacity="0.7928374444091363"></circle><circle r="7.26655561316668" cx="631.9918825320616" cy="564.281324387321" opacity="0.6913675566597351"></circle><circle r="5.134817724292443" cx="638.3793893007361" cy="679.6457593780269" opacity="0.6971454229060194"></circle><circle r="6.0359121839105185" cx="231.28268861453907" cy="780.6629317315193" opacity="0.27884569514577706"></circle><circle r="7.694118218742044" cx="306.2798810221574" cy="112.50138594743473" opacity="0.4351724342335803"></circle><circle r="7.5951998240027105" cx="411.5167358916839" cy="319.69218791543466" opacity="0.43405319429683775"></circle><circle r="5.524450899523474" cx="528.9660304149422" cy="727.607986992537" opacity="0.33413573105357386"></circle><circle r="5.796678195497015" cx="82.01314553173069" cy="430.74396295957143" opacity="0.7897889432166868"></circle><circle r="6.012998693220309" cx="449.79299180620745" cy="556.956077197847" opacity="0.34915789742196535"></circle><circle r="7.579547811824101" cx="119.52117898302279" cy="38.28836028862671" opacity="0.7542288157932991"></circle><circle r="8.503819381661096" cx="741.5562955730155" cy="325.5802725927817" opacity="0.7651137199291893"></circle><circle r="5.870992539853446" cx="223.28327727862032" cy="462.8504943681041" opacity="0.525265193465378"></circle><circle r="5.676048575195852" cx="468.5310595685355" cy="787.2273089564056" opacity="0.45867191075279656"></circle><circle r="3.8685538272816347" cx="70.44913693133702" cy="109.91663831981359" opacity="0.34927029909407314"></circle><circle r="11.055386069669648" cx="543.0699000254297" cy="770.0441779108235" opacity="0.49620584979225035"></circle><circle r="3.8740119600705234" cx="785.3867254327129" cy="156.53992447289934" opacity="0.6958468236555487"></circle><circle r="11.542114019738495" cx="258.8235366609536" cy="24.804633791732712" opacity="0.2987125351821592"></circle><circle r="7.300318186665123" cx="527.9438194080732" cy="637.748391667547" opacity="0.34650844654346746"></circle><circle r="7.289981289996575" cx="725.2187691857648" cy="633.9342075495267" opacity="0.14258030162623958"></circle><circle r="5.375728734908444" cx="326.7679518087547" cy="329.0470284676227" opacity="0.4048598616350605"></circle><circle r="6.476609712778162" cx="465.3561617037554" cy="138.02116632789176" opacity="0.9794279224962666"></circle><circle r="7.799034637362756" cx="430.06267350774425" cy="137.24969811313164" opacity="0.16803157463289464"></circle><circle r="9.679066601004747" cx="664.907680867628" cy="747.1570632416863" opacity="0.42059001144866326"></circle><circle r="5.342240586130149" cx="408.9462242628046" cy="721.4361527090771" opacity="0.8425797813852826"></circle><circle r="4.40927842146236" cx="434.57078970374585" cy="479.7048517107566" opacity="0.5131705845673145"></circle><circle r="7.429615825240827" cx="260.1929800473165" cy="153.10161408721797" opacity="0.6956930067067668"></circle><circle r="6.578621894187604" cx="185.1632155966084" cy="354.702459403809" opacity="0.8167297705379583"></circle><circle r="5.823458544434409" cx="464.13678685896997" cy="102.07280352970191" opacity="0.5864893447433581"></circle><circle r="5.3766839662129104" cx="669.7963168735942" cy="364.9356288251154" opacity="0.7158907668351425"></circle><circle r="10.26749968604404" cx="741.3417781769946" cy="113.61643698455104" opacity="0.6316871112075952"></circle><circle r="6.500550647101194" cx="487.6728233532452" cy="706.4495790001245" opacity="0.7051149394459535"></circle><circle r="5.335595301621749" cx="325.89064903659306" cy="288.21188960147504" opacity="0.5342732221935224"></circle><circle r="5.239040401116171" cx="520.0424999626207" cy="245.67954941507634" opacity="0.37080480113794534"></circle><circle r="6.172580137483013" cx="154.1402260395969" cy="388.56301416384787" opacity="0.20425297450795168"></circle><circle r="7.736827063436598" cx="177.16974299734133" cy="64.18878070560059" opacity="0.9816897789138714"></circle><circle r="5.930308872108844" cx="755.1656448082555" cy="665.7469391395098" opacity="0.29545061237515097"></circle><circle r="10.45415443659422" cx="627.8188899457541" cy="451.8079269701909" opacity="0.46774372253547103"></circle><circle r="5.659871465407721" cx="777.2420156636686" cy="701.9314709126597" opacity="0.32279099799527233"></circle><circle r="6.20598002262081" cx="194.28628914505757" cy="441.29889649316675" opacity="0.47178858563813253"></circle><circle r="6.942694541673132" cx="699.3721876688502" cy="327.1860528711854" opacity="0.13316546306722077"></circle><circle r="4.8362593699766" cx="312.56154361440446" cy="204.6441456999229" opacity="0.6142695490022376"></circle><circle r="7.196378822050159" cx="265.2227962837093" cy="115.67733520818389" opacity="0.10965958071885565"></circle><circle r="9.647720027546146" cx="238.8477914920922" cy="609.0854291490062" opacity="0.9349302541272223"></circle><circle r="8.647938277097552" cx="444.8841910246553" cy="356.7148489915539" opacity="0.4187216310030274"></circle><circle r="6.341727509803257" cx="542.5813734257798" cy="52.21466357086613" opacity="0.13623002765011802"></circle><circle r="8.4674607346067" cx="757.600873205457" cy="435.75114460959475" opacity="0.6740116877822159"></circle><circle r="8.123190157735742" cx="33.16198036927616" cy="180.54087731002318" opacity="0.9936187005850969"></circle><circle r="6.770585251819204" cx="134.1064077873613" cy="768.68631039703" opacity="0.2060862136166467"></circle><circle r="9.948163314849696" cx="279.2164167820911" cy="660.4981694788153" opacity="0.17027085928190638"></circle><circle r="6.612962885635963" cx="121.74777442200781" cy="193.65863238956703" opacity="0.4435291355198806"></circle><circle r="12.469946411895439" cx="366.83043764110215" cy="32.843830649864486" opacity="0.30465582541161584"></circle><circle r="6.262363993572303" cx="15.355239177085895" cy="517.7824981581437" opacity="0.6543823911611738"></circle><circle r="10.869634481953359" cx="439.0998530036305" cy="599.9781111742657" opacity="0.175449958448755"></circle><circle r="8.056660297744473" cx="84.78344833192453" cy="263.6643622914621" opacity="0.27646738729552417"></circle><circle r="5.838728684483519" cx="718.5226791928877" cy="675.9872919854025" opacity="0.33900848165188935"></circle><circle r="5.290808041796657" cx="12.974288402878926" cy="147.1835608507424" opacity="0.6049390742430899"></circle><circle r="7.992896006451959" cx="292.122718683508" cy="354.4959557304894" opacity="0.20122124694002017"></circle><circle r="6.662719747158533" cx="649.1640426300993" cy="333.3680553324305" opacity="0.4972217276892623"></circle><circle r="7.656030119314485" cx="167.07353706422003" cy="643.2729108842307" opacity="0.42957081747307835"></circle><circle r="8.329288934497146" cx="29.318909262309962" cy="466.08306369288334" opacity="0.9709219159604325"></circle><circle r="6.134911029314802" cx="356.74181631613743" cy="759.4779758642891" opacity="0.6428149976895939"></circle><circle r="7.187950658417796" cx="149.021795510643" cy="94.55393478009073" opacity="0.22647483340055066"></circle><circle r="8.119936992999769" cx="201.31140915082898" cy="283.86020511434424" opacity="0.28796435339722526"></circle><circle r="5.845301645732479" cx="594.1393354861036" cy="484.93834621022296" opacity="0.28387157463925017"></circle><circle r="5.555019787455278" cx="467.4830045329996" cy="264.4994020794908" opacity="0.8858718779313465"></circle><circle r="7.829218686940086" cx="709.9697128930387" cy="23.61330248843489" opacity="0.6256206520893725"></circle><circle r="5.926740697749926" cx="677.8417237170968" cy="691.9973934283125" opacity="0.22630757343026245"></circle><circle r="8.306240083606074" cx="778.5127120333598" cy="266.08700163631846" opacity="0.5742747997555411"></circle><circle r="5.685420321601644" cx="87.85070287388862" cy="685.6225940214783" opacity="0.9479671201755109"></circle><circle r="5.310805306401601" cx="479.97983378752997" cy="228.1013990572739" opacity="0.41432136165243605"></circle><circle r="9.143225007647604" cx="607.8151092948339" cy="198.51263676196555" opacity="0.5280611595054964"></circle><circle r="9.456010733330075" cx="414.34684417602824" cy="254.01302876078935" opacity="0.2901924606633437"></circle><circle r="6.835312631411995" cx="235.65676446772946" cy="200.47769163088768" opacity="0.353651889729346"></circle><circle r="7.91295153441026" cx="654.3656777733031" cy="597.9330259413289" opacity="0.3051743746743836"></circle><circle r="10.335712516827233" cx="543.9189658343654" cy="686.9087962952041" opacity="0.3265994138033761"></circle><circle r="6.994407271035236" cx="353.0457716322385" cy="418.2665432146015" opacity="0.6586585331508195"></circle><circle r="6.558025494206765" cx="623.5323348878879" cy="121.30852997556555" opacity="0.7249929037100806"></circle><circle r="6.610567099383806" cx="773.357977438218" cy="349.87993737235644" opacity="0.3464826015464949"></circle><circle r="4.688705798477436" cx="273.2710003524971" cy="402.3496326334542" opacity="0.29575578107122424"></circle><circle r="6.892621613654901" cx="493.61371341926065" cy="170.42468298867072" opacity="0.4090553388319751"></circle><circle r="6.050543914507818" cx="268.61812139019366" cy="449.91176963446264" opacity="0.8096735257139746"></circle><circle r="6.162104855031726" cx="688.9662811373119" cy="551.9158875741159" opacity="0.18272951823431605"></circle><circle r="5.576415906180407" cx="99.70179443413869" cy="162.5838658196002" opacity="0.5399726103495336"></circle><circle r="6.522512526154532" cx="287.6762441938123" cy="271.4050286917077" opacity="0.37305304927305416"></circle><circle r="9.543585101608835" cx="432.09538158950295" cy="293.26042244947405" opacity="0.5608237432692755"></circle><circle r="4.754430729560384" cx="492.9574774645167" cy="466.46333585759663" opacity="0.1967440860345648"></circle><circle r="10.823383534973605" cx="638.2631476590237" cy="224.54292869748332" opacity="0.4579380290382584"></circle><circle r="9.658440174602585" cx="249.8664036375952" cy="563.318425337979" opacity="0.375526179993214"></circle><circle r="3.764678003001695" cx="790.3122079190111" cy="788.5017306298007" opacity="0.19974838074427984"></circle><circle r="5.471732817168129" cx="13.699614262220509" cy="707.2921152626046" opacity="0.8984942578767047"></circle><circle r="5.567113337554038" cx="332.3014754360568" cy="505.2119019169992" opacity="0.5344609899616971"></circle><circle r="7.821613456358464" cx="86.55180480876146" cy="205.21148497071843" opacity="0.5035995399514123"></circle><circle r="6.012061785438329" cx="138.35305190245498" cy="689.5798808875979" opacity="0.7721184931940224"></circle><circle r="5.823562243434833" cx="232.6139195135606" cy="701.12655862951" opacity="0.8508822889167079"></circle><circle r="5.001575318463866" cx="178.5238266820465" cy="784.4583614556433" opacity="0.9794870672554101"></circle><circle r="6.2489414912021335" cx="445.47564092709325" cy="754.6999615979795" opacity="0.4209112899277494"></circle><circle r="10.310947471508726" cx="172.41492235653854" cy="561.6471670272817" opacity="0.8961455429286855"></circle><circle r="7.854401354801237" cx="523.7374416317679" cy="200.27340192376138" opacity="0.34998761796714606"></circle><circle r="9.708450048722135" cx="773.9312504922735" cy="218.2899633216594" opacity="0.3781949707366935"></circle><circle r="7.611918605492217" cx="74.50149308827281" cy="51.61313309675952" opacity="0.7491489413059709"></circle><circle r="4.3929323909966564" cx="25.88239747163717" cy="293.959085349716" opacity="0.7251008469648289"></circle><circle r="4.006492796687377" cx="283.82804631778913" cy="203.315126175691" opacity="0.8074659088588271"></circle><circle r="8.100702803798622" cx="144.47588844335485" cy="158.76558037517518" opacity="0.9836886564304629"></circle><circle r="9.584994738398352" cx="776.6160557546405" cy="486.4884878815313" opacity="0.8056004383392762"></circle><circle r="9.042177953981831" cx="643.4690596244885" cy="642.1285990100313" opacity="0.8132273532738342"></circle><circle r="7.213614157860279" cx="447.38194215934004" cy="669.7536546402835" opacity="0.7468293500066167"></circle><circle r="11.139898736656544" cx="712.730949522075" cy="377.6627526298352" opacity="0.19633572905259966"></circle><circle r="5.6447224375318115" cx="438.71376545457065" cy="511.87554936870936" opacity="0.7341576049303035"></circle><circle r="6.152713150976626" cx="230.22808941179883" cy="517.32806493445" opacity="0.7202684502097142"></circle><circle r="4.419990997936546" cx="614.0096320896209" cy="40.68511998732304" opacity="0.10409206054517459"></circle><circle r="8.461273649294942" cx="418.8105633348362" cy="537.0251111461484" opacity="0.9474640767647606"></circle><circle r="5.344813648534114" cx="687.9788696617564" cy="778.8163877978208" opacity="0.993165512122059"></circle><circle r="10.723941083004078" cx="671.3795102525111" cy="56.29604004482775" opacity="0.3139058189719903"></circle><circle r="7.793415538823242" cx="343.1434182561918" cy="370.98869953843206" opacity="0.1061728668149719"></circle><circle r="7.134771978403853" cx="315.720044442801" cy="45.31847989318108" opacity="0.22892764427919765"></circle><circle r="6.85683663728288" cx="149.5516759874938" cy="20.953545034935456" opacity="0.5476655600442777"></circle><circle r="3.7781880026825543" cx="470.4156643005448" cy="490.0944951816997" opacity="0.8718719250128697"></circle><circle r="7.182285475253266" cx="610.0254409300369" cy="756.798090810116" opacity="0.615976636615354"></circle><circle r="10.41217396071642" cx="750.8957219193674" cy="171.51117171536708" opacity="0.9051010244770168"></circle><circle r="8.756709823244687" cx="608.6637819570933" cy="526.5832394888494" opacity="0.7956925120869732"></circle><circle r="8.09041192495653" cx="780.5373221834499" cy="97.13969921016236" opacity="0.5241597372619645"></circle><circle r="11.20494633580919" cx="707.1736528659766" cy="158.33053327346724" opacity="0.4005746858790029"></circle><circle r="7.01899646450344" cx="258.1292598817452" cy="73.63889530003866" opacity="0.6832232175801151"></circle><circle r="8.151292466641785" cx="657.549070301627" cy="291.2446787590534" opacity="0.758488103354151"></circle><circle r="9.085150446755634" cx="480.8277557693493" cy="528.3879097710658" opacity="0.8546829613508796"></circle><circle r="8.863556614540238" cx="653.9637577724947" cy="531.6099766169766" opacity="0.2759716054219028"></circle><circle r="8.648310735786788" cx="409.96288182963303" cy="421.27632115099726" opacity="0.5123755046430828"></circle><circle r="5.5205713726022845" cx="417.42685045150625" cy="79.5892763743304" opacity="0.2769255203126738"></circle><circle r="5.776416979866072" cx="80.58922205760496" cy="132.79584572854696" opacity="0.21046060597985106"></circle><circle r="5.4331581699252265" cx="550.7250182948878" cy="86.57681377560691" opacity="0.9332866444783422"></circle><circle r="13.022410397315483" cx="465.0598425468341" cy="407.88874660532434" opacity="0.22701798628175907"></circle><circle r="9.439198344902344" cx="51.863026972457234" cy="405.9458892113172" opacity="0.21736364263117408"></circle><circle r="11.210235822339811" cx="493.60286994469567" cy="354.3310788874483" opacity="0.4746526023631563"></circle><circle r="7.903336334668087" cx="244.76414956693412" cy="306.08924123914807" opacity="0.5449211904786656"></circle><circle r="5.189214255075207" cx="379.10479653326837" cy="543.1363344439652" opacity="0.2860567256604611"></circle><circle r="8.660427055901977" cx="322.33699043081464" cy="695.131912180035" opacity="0.6677427316420201"></circle><circle r="5.1617533060346945" cx="285.19540054387477" cy="311.2489308214338" opacity="0.5116069902787005"></circle><circle r="6.641146500197934" cx="211.38100735829505" cy="90.79555709753565" opacity="0.2406265611109685"></circle><circle r="7.649189232972885" cx="16.72151080879925" cy="420.9275337440126" opacity="0.5491587767733737"></circle><circle r="8.909164123077502" cx="723.5891548744307" cy="486.01587021135254" opacity="0.666808458451839"></circle><circle r="9.821799354701824" cx="564.5999646044918" cy="513.8030479473814" opacity="0.839844127936508"></circle><circle r="6.735076660720539" cx="386.55616648410154" cy="95.38832453629881" opacity="0.5781446188907924"></circle><circle r="9.052085544223765" cx="641.7071309625381" cy="490.5879556888035" opacity="0.4389703731038065"></circle><circle r="8.552295554455588" cx="88.08423027051646" cy="734.2118194027506" opacity="0.20992570489485674"></circle><circle r="7.165823514275134" cx="258.5004657095108" cy="221.80244341308742" opacity="0.30194994098992733"></circle><circle r="4.704766927212761" cx="228.3808916461034" cy="173.37917144849683" opacity="0.275313405200894"></circle><circle r="10.397222085124532" cx="767.7288754885838" cy="389.9381956251253" opacity="0.3330681011667638"></circle><circle r="7.509753162998123" cx="434.3022463586507" cy="448.83821247308487" opacity="0.22612844832516962"></circle><circle r="7.556399290107887" cx="577.71091437159" cy="711.3707429378393" opacity="0.48636470567807244"></circle><circle r="9.258103313766991" cx="20.17306771061724" cy="64.95588962592149" opacity="0.31990791035522204"></circle><circle r="7.730878685488893" cx="497.8604418375292" cy="43.94854307049365" opacity="0.6431976778008802"></circle><circle r="8.290403379538411" cx="633.8391667751407" cy="80.44650797250678" opacity="0.33437834633431224"></circle><circle r="7.122294610667961" cx="760.2446274533581" cy="16.640911471151124" opacity="0.8000520128690681"></circle><circle r="9.07423943895875" cx="110.30984069043471" cy="500.4775230894832" opacity="0.8825750469945267"></circle><circle r="9.080533818912404" cx="429.0298479681045" cy="21.03609349332269" opacity="0.5822642528148149"></circle><circle r="10.41543070846162" cx="526.0352297256106" cy="391.3328284664873" opacity="0.8974944440673899"></circle><circle r="9.121346083612467" cx="312.4462353305294" cy="735.7772802613961" opacity="0.33188191099865283"></circle><circle r="8.23298434699487" cx="54.404527884236614" cy="746.8377083075142" opacity="0.2719400967385639"></circle><circle r="4.619534416929048" cx="658.5647977452231" cy="17.0377478600369" opacity="0.211785016591238"></circle><circle r="11.483267102763268" cx="141.99933932387407" cy="233.55162561554357" opacity="0.3809239691626958"></circle><circle r="4.2609333069177655" cx="16.814083711533964" cy="267.9575375832167" opacity="0.6299702097198064"></circle><circle r="7.314151774361928" cx="634.5484901643651" cy="720.1247894141428" opacity="0.5671810066837325"></circle><circle r="11.166143182115452" cx="199.71671171331138" cy="25.32995542044805" opacity="0.8065749394461118"></circle><circle r="6.192688641633772" cx="336.180746591136" cy="538.5465700496964" opacity="0.28696982264238324"></circle><circle r="5.133252862865106" cx="350.6103563781432" cy="106.31586430778954" opacity="0.8695093170525341"></circle><circle r="8.055326592151706" cx="537.8521887253006" cy="336.8112518535563" opacity="0.32161202698671265"></circle><circle r="6.502800979984276" cx="604.7094109942826" cy="656.7768467065378" opacity="0.10078901061368074"></circle><circle r="4.754751704456329" cx="559.7988692021133" cy="466.5422764126196" opacity="0.148267973398327"></circle><circle r="5.89335296092818" cx="574.0594747614325" cy="640.5713715901612" opacity="0.7477217742338685"></circle><circle r="7.152292280547374" cx="117.3914020989315" cy="451.7383399608945" opacity="0.46448692436042605"></circle><circle r="7.449188782155021" cx="272.8904699149731" cy="514.2267485310322" opacity="0.3412583439199216"></circle><circle r="6.7572617327384314" cx="201.987964677467" cy="154.37729435234363" opacity="0.713928728492231"></circle><circle r="7.631659680508285" cx="192.6169339901908" cy="751.7047010609499" opacity="0.23850436353899096"></circle><circle r="7.66586615255869" cx="782.1481054671038" cy="538.3889771991693" opacity="0.15269745037585"></circle><circle r="7.140083786693694" cx="606.6248742455573" cy="693.7311606155446" opacity="0.47971447924900434"></circle><circle r="7.438353288509633" cx="403.6965398432474" cy="781.9474457141466" opacity="0.8406160650769295"></circle><circle r="6.943905841746114" cx="558.1465251279915" cy="427.6229988402598" opacity="0.2464899202579594"></circle><circle r="7.295541410830195" cx="300.70509578833077" cy="239.6001525261837" opacity="0.3270999300999109"></circle><circle r="8.433765501448269" cx="157.60411407149346" cy="738.4694474577175" opacity="0.2587029851381413"></circle><circle r="9.928840202766043" cx="101.83725077205743" cy="338.26488583656385" opacity="0.8487178832283483"></circle><circle r="6.239091885011577" cx="513.3496403081522" cy="13.225063191548857" opacity="0.6122438619985525"></circle><circle r="9.435522141199467" cx="690.783638648477" cy="599.4777123414656" opacity="0.9404341593876245"></circle><circle r="10.760658842564307" cx="567.3399120526454" cy="224.92784696731522" opacity="0.7933459268800479"></circle><circle r="6.561168429075465" cx="13.858318736355884" cy="207.08342466409292" opacity="0.1252888968009689"></circle><circle r="5.750560923262424" cx="603.1743628296923" cy="12.098125156946379" opacity="0.9092868210064661"></circle><circle r="6.301881834176966" cx="525.0817953030257" cy="510.47324848443014" opacity="0.9985016765581429"></circle><circle r="4.734939544335356" cx="565.2438721044957" cy="24.983704637895208" opacity="0.8054083989138189"></circle><circle r="9.929098217078629" cx="270.66275215357257" cy="716.6447904273549" opacity="0.2573371287043777"></circle><circle r="5.634525748994822" cx="438.41679354378095" cy="707.1005419980507" opacity="0.5457989687424143"></circle><circle r="3.77075527957358" cx="770.5022005191041" cy="780.7635827966876" opacity="0.7199173494726492"></circle><circle r="12.04053562079877" cx="297.52353955631907" cy="601.8996136945848" opacity="0.6290056397798541"></circle><circle r="6.288937768813868" cx="733.395932331912" cy="287.28060542878336" opacity="0.5556836141401594"></circle><circle r="6.477546429598504" cx="153.88702560471805" cy="466.76903036982844" opacity="0.9594032425062727"></circle><circle r="8.848529599549241" cx="471.1950322869315" cy="633.0171972221733" opacity="0.11784897859054241"></circle><circle r="9.083554743923587" cx="115.98636097760269" cy="129.2157602953695" opacity="0.5938699214795164"></circle><circle r="7.179618474756216" cx="482.7843557856259" cy="308.2437809421618" opacity="0.9844704270786268"></circle><circle r="9.052108795345639" cx="306.6606935374521" cy="408.8466625584164" opacity="0.8653417865550173"></circle><circle r="10.14430239636122" cx="727.17097408838" cy="66.2376153982434" opacity="0.45004549075170386"></circle><circle r="8.596857421222166" cx="608.7660799851108" cy="320.5138949400726" opacity="0.7067534565518768"></circle><circle r="8.664973574491" cx="188.2282337270995" cy="321.15361193927384" opacity="0.5692631368579112"></circle><circle r="7.342015447703505" cx="351.33331576669985" cy="576.2844573340218" opacity="0.8956098936200998"></circle><circle r="7.4669834918742195" cx="31.32200519114357" cy="568.8070270219933" opacity="0.37528562114975605"></circle><circle r="5.474196768297537" cx="403.4722374575016" cy="202.68502303664138" opacity="0.2541783995493996"></circle><circle r="8.474674379702451" cx="767.230334505511" cy="740.5827277540445" opacity="0.6624591552886891"></circle><circle r="5.802396348201457" cx="363.27248705488137" cy="204.73390398901904" opacity="0.4730246107853897"></circle><circle r="3.5901785021797923" cx="184.2205875766761" cy="117.826539595972" opacity="0.9896857098879217"></circle><circle r="7.752446651414633" cx="190.68799581239557" cy="710.0857798390668" opacity="0.8182013509970237"></circle><circle r="8.417245330438332" cx="226.82232137324257" cy="352.92268691396833" opacity="0.6915554325067036"></circle><circle r="7.63298715208837" cx="66.75871169167553" cy="164.3282531191851" opacity="0.5320295829745603"></circle><circle r="9.668158764825735" cx="593.9649864330039" cy="414.4187665777383" opacity="0.9033067996302597"></circle><circle r="4.794583686772783" cx="280.6201621013264" cy="788.5769340484749" opacity="0.36328611111748643"></circle><circle r="10.249621313723765" cx="657.1264826330975" cy="159.74489825102873" opacity="0.41678702328991457"></circle><circle r="5.939855734120146" cx="113.98879621529572" cy="542.2653006982478" opacity="0.3554647331758931"></circle><circle r="5.135625143211213" cx="259.76933403687684" cy="361.7596104002676" opacity="0.6582580746422726"></circle><circle r="5.119618302750519" cx="229.21212694982216" cy="126.08391714975029" opacity="0.7601068338682738"></circle><circle r="6.111497501214406" cx="57.83473453439795" cy="785.3594064155305" opacity="0.7613664501995533"></circle><circle r="7.130288041830543" cx="574.9737356409657" cy="358.1251494342156" opacity="0.4760680059295841"></circle><circle r="9.28351539329477" cx="376.2481902173988" cy="241.8451394254812" opacity="0.4430626947936187"></circle><circle r="7.903517648526203" cx="338.0408290980426" cy="150.13980788823943" opacity="0.4599271529443183"></circle><circle r="6.456445220903856" cx="402.37598804104766" cy="169.52264344601068" opacity="0.3420463894986729"></circle><circle r="8.753471096719798" cx="392.65583541246485" cy="506.01892375828237" opacity="0.8025682554428293"></circle><circle r="11.676666848874586" cx="722.9396767372908" cy="723.9673449523037" opacity="0.620713412995271"></circle><circle r="7.578676640705707" cx="694.1045495014347" cy="286.2464271445481" opacity="0.743950389163642"></circle><circle r="4.730404158744193" cx="503.80650029212006" cy="137.21720429048352" opacity="0.41916404008641284"></circle><circle r="9.514090582612788" cx="20.620798704166" cy="627.3778420663573" opacity="0.4563728731162625"></circle><circle r="5.889875858334187" cx="203.166962145962" cy="410.0381200383203" opacity="0.11494239047966609"></circle><circle r="5.52268820935547" cx="610.7766815123942" cy="160.4527866359555" opacity="0.31900018991923185"></circle><circle r="9.977738178834617" cx="573.9557133047967" cy="117.61207107889882" opacity="0.6067202791384729"></circle><circle r="9.972360428634815" cx="28.039042710225818" cy="21.886005932966675" opacity="0.11745924300293743"></circle><circle r="7.900525575264931" cx="176.1319668778771" cy="604.3252926851787" opacity="0.2258791829597663"></circle><circle r="6.424794369983201" cx="613.6748794004857" cy="374.0527530015278" opacity="0.5715328171378697"></circle><circle r="6.787490557786507" cx="780.3889308387078" cy="307.9834371240448" opacity="0.598959193454748"></circle><circle r="7.390991463366362" cx="529.0388048871939" cy="284.29317131027665" opacity="0.7399827205554388"></circle><circle r="6.504932659452615" cx="80.69792816957795" cy="579.4068220702316" opacity="0.20046113287645123"></circle><circle r="8.375389367811433" cx="647.506869442854" cy="401.5481013235468" opacity="0.14836493258553174"></circle><circle r="5.618658420196773" cx="238.05689000401333" cy="392.0024834330817" opacity="0.9304665307571308"></circle><circle r="7.070499616500394" cx="779.2314188119194" cy="47.27437791233678" opacity="0.4516851029744121"></circle><circle r="9.157203274836577" cx="24.52677207516584" cy="106.58369204564033" opacity="0.4138895236848802"></circle><circle r="5.180723667902596" cx="271.7807909110489" cy="760.5840593611608" opacity="0.4333959259606147"></circle><circle r="10.158946403802005" cx="539.6977116060466" cy="146.14414381591408" opacity="0.8379698692638301"></circle><circle r="6.201968188688227" cx="784.3518495050905" cy="648.4881817080285" opacity="0.9471339290766729"></circle><circle r="6.265770466150183" cx="569.6226696812805" cy="293.91460361436197" opacity="0.2965187839842677"></circle><circle r="10.349842676626032" cx="160.26275789647227" cy="512.829612185619" opacity="0.3917914092981327"></circle><circle r="9.322986566437155" cx="401.6670761677475" cy="625.2568779974295" opacity="0.2511085605528449"></circle><circle r="6.0534843234677975" cx="14.49811382742278" cy="322.93235809762695" opacity="0.6571055413760883"></circle><circle r="5.837084200698376" cx="595.5384424239091" cy="258.7334265265361" opacity="0.4963509003069827"></circle><circle r="6.6964932769074395" cx="43.53090047323078" cy="143.30856335956904" opacity="0.152602352562757"></circle><circle r="9.405737268904725" cx="609.7684847742265" cy="606.0923086568089" opacity="0.6188028301099855"></circle><circle r="10.22059003771674" cx="384.1482711455294" cy="461.2444345481309" opacity="0.5628541093430725"></circle><circle r="7.137594181209739" cx="681.6317413890324" cy="643.6470213752773" opacity="0.5755323980548521"></circle><circle r="9.63811840301111" cx="111.54038503454028" cy="84.7940032629301" opacity="0.777513023834763"></circle><circle r="6.655513491689284" cx="347.48363300734314" cy="262.43086847663074" opacity="0.5663350765319796"></circle><circle r="14.39303297963518" cx="139.1001678498847" cy="289.57846420291787" opacity="0.23727588526625912"></circle><circle r="8.193501201265391" cx="297.5257960441314" cy="483.78586414915435" opacity="0.1138031938258668"></circle><circle r="3.8561790114919217" cx="754.5747786562571" cy="574.723358650053" opacity="0.7268224965419886"></circle><circle r="6.312689451670627" cx="771.8057548622528" cy="612.8357397307776" opacity="0.6868884728127022"></circle><circle r="6.834717453417783" cx="60.22932417448573" cy="311.153744580509" opacity="0.5916134322948216"></circle><circle r="10.670294768206473" cx="687.3635260245762" cy="434.0310079658086" opacity="0.5889673533155754"></circle><circle r="8.308590740434965" cx="399.88007266652625" cy="578.9821348568" opacity="0.4048802402695323"></circle><circle r="7.374983882427506" cx="684.335835682015" cy="498.7409692020258" opacity="0.9404198780534205"></circle><circle r="6.220160002522324" cx="374.04697023724117" cy="334.5112560431498" opacity="0.19567321462179188"></circle><circle r="9.052818450324235" cx="436.4672866681486" cy="218.92305282312142" opacity="0.8521423903209605"></circle><circle r="6.309215330735011" cx="102.62101999367218" cy="781.8000324254255" opacity="0.9567029275075979"></circle><circle r="10.10052117935543" cx="347.35370046536104" cy="667.8843202688662" opacity="0.4589173149350242"></circle><circle r="12.030073047318943" cx="392.6761914497102" cy="669.8622197863896" opacity="0.7266200219912591"></circle><circle r="4.762947855428071" cx="388.8043259757152" cy="138.67904683177414" opacity="0.7701231974454508"></circle><circle r="10.035391881701297" cx="344.65364982257637" cy="619.8694790549218" opacity="0.9820248446079222"></circle><circle r="8.15694316699383" cx="157.06139123318422" cy="423.11555206455057" opacity="0.10771470280828388"></circle><circle r="7.38318997868514" cx="335.1618228548608" cy="222.4186471886053" opacity="0.9760986911389152"></circle><circle r="5.708016514408346" cx="589.2369752546947" cy="72.44866283648457" opacity="0.1715443282797043"></circle><circle r="7.761469208715001" cx="691.9165642219301" cy="204.240898370953" opacity="0.2837356634717516"></circle><circle r="7.714715273945111" cx="515.7504283153028" cy="438.32066098758855" opacity="0.9421607747626961"></circle><circle r="6.464890073564115" cx="442.1100113758487" cy="177.17220591817332" opacity="0.9716342935329785"></circle><circle r="11.05666468625423" cx="111.01380872668743" cy="394.8916511452733" opacity="0.17321539768499505"></circle><circle r="7.028428869890209" cx="392.5398838583188" cy="395.02330239083483" opacity="0.5807443015779277"></circle><circle r="5.52986173177559" cx="236.0589664366701" cy="425.0433391159034" opacity="0.534308341845631"></circle><circle r="7.353544432913001" cx="296.47201363108746" cy="548.4969262646499" opacity="0.9100858402911355"></circle><circle r="9.255173176351219" cx="738.3531941931166" cy="776.8197800488924" opacity="0.5903103419884761"></circle><circle r="8.073406864772068" cx="56.73516287226486" cy="656.5833705540736" opacity="0.8307989042380494"></circle><circle r="3.5831523182368454" cx="786.0705196040626" cy="580.5279969987489" opacity="0.6875279267527981"></circle><circle r="6.365821195941991" cx="495.4910655639825" cy="760.9633976477862" opacity="0.8383240438976107"></circle><circle r="10.469490388289163" cx="60.974359988046416" cy="360.69538297265115" opacity="0.5840838164228283"></circle><circle r="4.48872773732112" cx="397.6240520335594" cy="362.9297853836665" opacity="0.9397345846378459"></circle><circle r="9.548979864220628" cx="324.6681347362695" cy="451.0115654551223" opacity="0.6117266283968823"></circle><circle r="8.015302138424255" cx="119.94110956099716" cy="719.6810489774441" opacity="0.37942600003030014"></circle><circle r="5.680452898885346" cx="72.34968074384258" cy="620.7476341392642" opacity="0.7264832566750125"></circle><circle r="6.088463298835466" cx="19.08391871699103" cy="363.913888949259" opacity="0.35036547503510296"></circle><circle r="7.126561430152959" cx="679.8223821125902" cy="248.99157642829627" opacity="0.36299292543667006"></circle><circle r="4.822730752583274" cx="286.73213234757105" cy="167.30724663529745" opacity="0.5896627932209887"></circle><circle r="8.872981895077334" cx="720.982065871974" cy="569.5337314193793" opacity="0.19876007655152994"></circle><circle r="11.360826052728465" cx="578.3800976130468" cy="562.4491454727008" opacity="0.9099874205029348"></circle><circle r="9.647248766654261" cx="144.15702809256783" cy="349.2926024947742" opacity="0.8177785100860935"></circle><circle r="6.106311530337566" cx="61.21579214947469" cy="81.05365827903054" opacity="0.7653086968189438"></circle><circle r="5.119297278737508" cx="55.48453916667123" cy="520.3410273670277" opacity="0.7773182278024298"></circle><circle r="6.389050757696453" cx="371.02101029101397" cy="296.8218981110933" opacity="0.5789837424784768"></circle><circle r="7.614173836637409" cx="177.55022757320268" cy="189.407694597192" opacity="0.5548921600768765"></circle><circle r="7.0442168779107295" cx="592.6114887705764" cy="785.588612235816" opacity="0.32992180384564307"></circle><circle r="6.150342145503137" cx="205.71211203132097" cy="542.128010611121" opacity="0.9788405485086604"></circle><circle r="8.328183767720043" cx="220.20590956150937" cy="654.2791311502201" opacity="0.7771401255864056"></circle><circle r="9.297366947907992" cx="501.7090989113948" cy="665.8250195288703" opacity="0.4437088467148197"></circle><circle r="7.3223608759900065" cx="380.7673773311004" cy="732.7533521034788" opacity="0.8656397812642811"></circle><circle r="8.948813994508585" cx="522.3870699131015" cy="559.2133267072633" opacity="0.861358571347142"></circle><circle r="7.982823148911488" cx="457.5399944936853" cy="57.293722954230475" opacity="0.2505973583170548"></circle><circle r="9.331901387440338" cx="508.890021896808" cy="93.37401622327019" opacity="0.24679323934505418"></circle><circle r="5.4551649204609305" cx="81.68588718097303" cy="15.910337687421338" opacity="0.38037349970419043"></circle><circle r="7.967742577659704" cx="33.014267327652384" cy="244.3618086436998" opacity="0.8346999846681896"></circle><circle r="7.341943562831091" cx="325.64745678074917" cy="781.120307991475" opacity="0.8675762561685418"></circle><circle r="6.023421193364201" cx="740.6803674464473" cy="533.3064279760782" opacity="0.8422629962160596"></circle><circle r="5.393451492785312" cx="246.51764824995465" cy="255.55428397020324" opacity="0.7024332087886865"></circle><circle r="7.7110664419907184" cx="355.19495789620333" cy="483.3129416270741" opacity="0.28657513021507897"></circle><circle r="6.6286865166021345" cx="191.39960087141355" cy="484.1915363199593" opacity="0.7067859269441352"></circle><circle r="3.6774826602258237" cx="790.8164544381505" cy="755.9740591544602" opacity="0.6128680016008161"></circle><circle r="9.483564800853069" cx="17.54410705478945" cy="768.769746347323" opacity="0.6290073666881575"></circle><circle r="6.630866979595288" cx="117.69352271621054" cy="642.1584066554739" opacity="0.6846039426569545"></circle><circle r="9.213005573106214" cx="568.6165437204064" cy="172.76938877126776" opacity="0.4393325114520331"></circle><circle r="6.438647181456387" cx="227.4377780379028" cy="742.4479683005496" opacity="0.9103723476486806"></circle><circle r="8.456458297817596" cx="730.9185548257158" cy="239.15299430063843" opacity="0.3460030582023733"></circle><circle r="5.237038299337193" cx="244.0812777716876" cy="487.02302414878045" opacity="0.350032131560828"></circle><circle r="8.361315989920726" cx="686.2300121232671" cy="106.84176629254239" opacity="0.45058486200418324"></circle><circle r="6.65107754923168" cx="320.44182609751414" cy="175.9337433888603" opacity="0.9543239899798662"></circle><circle r="9.231661733234683" cx="126.11405084227161" cy="589.6365507699056" opacity="0.392688744251666"></circle><circle r="7.168190325463934" cx="366.6409344629907" cy="173.56037104235602" opacity="0.6397468840567921"></circle></g></svg>